<?xml version="1.0" encoding="UTF-8"?>
<!DOCTYPE svg PUBLIC "-//W3C//DTD SVG 1.1//EN" "http://www.w3.org/Graphics/SVG/1.1/DTD/svg11.dtd">
<svg xmlns="http://www.w3.org/2000/svg" version="1.1" width="2656px" height="1420px" style="shape-rendering:geometricPrecision; text-rendering:geometricPrecision; image-rendering:optimizeQuality; fill-rule:evenodd; clip-rule:evenodd" xmlns:xlink="http://www.w3.org/1999/xlink">
<g><path style="opacity:1" fill="#967e3b" d="M 941.5,46.5 C 959.869,49.9014 976.869,56.7347 992.5,67C 1042.49,99.6702 1077.66,144.17 1098,200.5C 1101.1,210.305 1102.76,220.305 1103,230.5C 1100.63,229.711 1098.47,228.544 1096.5,227C 1064.44,195.289 1027.11,171.622 984.5,156C 980.705,155.163 977.039,155.496 973.5,157C 871.343,281.095 832.843,422.928 858,582.5C 880.108,691.062 928.775,785.396 1004,865.5C 1005.24,866.877 1005.41,868.21 1004.5,869.5C 889.008,804.823 809.508,709.823 766,584.5C 718.891,421.724 746.891,273.391 850,139.5C 876.993,105.007 907.493,74.0069 941.5,46.5 Z"/></g>
<g><path style="opacity:1" fill="#967e3b" d="M 1756.5,46.5 C 1758.99,46.2978 1761.32,46.7978 1763.5,48C 1829.36,100.913 1880.53,165.413 1917,241.5C 1980.74,388.577 1974.41,532.577 1898,673.5C 1849.44,758.399 1782.27,823.899 1696.5,870C 1770.01,792.18 1818.84,700.68 1843,595.5C 1872.32,430.751 1834.15,284.085 1728.5,155.5C 1725.89,154.348 1723.23,154.182 1720.5,155C 1676.54,171.681 1637.87,196.347 1604.5,229C 1602.98,230.009 1601.31,230.509 1599.5,230.5C 1600.54,214.34 1604.71,199.007 1612,184.5C 1636,129.174 1674.5,87.3408 1727.5,59C 1737.26,54.782 1746.92,50.6154 1756.5,46.5 Z"/></g>
<g><path style="opacity:1" fill="#967e3b" d="M 1348.5,108.5 C 1350.2,108.34 1351.87,108.506 1353.5,109C 1419.98,152.124 1479.15,203.957 1531,264.5C 1561.91,301.427 1588.91,341.094 1612,383.5C 1667.24,491.283 1686.24,604.95 1669,724.5C 1656.56,796.348 1631.56,863.348 1594,925.5C 1568.82,965.622 1537.32,1000.12 1499.5,1029C 1479.21,1044.62 1458.38,1059.46 1437,1073.5C 1435.72,1073.39 1434.89,1072.72 1434.5,1071.5C 1435.65,1067.51 1437.48,1063.85 1440,1060.5C 1489.49,1016.33 1526.49,963.325 1551,901.5C 1625.45,720.357 1607.12,549.357 1496,388.5C 1474.39,360.21 1450.55,333.71 1424.5,309C 1402.87,290.853 1380.87,273.186 1358.5,256C 1353.99,253.186 1349.33,252.853 1344.5,255C 1318.63,273.86 1293.63,293.86 1269.5,315C 1171.27,406.645 1116.1,519.812 1104,654.5C 1100.18,719.122 1108.52,782.122 1129,843.5C 1144.9,895.3 1168.24,943.3 1199,987.5C 1212.29,1003.79 1225.96,1019.79 1240,1035.5C 1248.75,1043.92 1257.09,1052.58 1265,1061.5C 1267.85,1065.98 1266.68,1067.81 1261.5,1067C 1219.64,1039.45 1180.81,1007.95 1145,972.5C 1100.9,922.659 1068.9,865.659 1049,801.5C 995.494,624.871 1022.49,461.871 1130,312.5C 1180.58,242.585 1241.08,182.751 1311.5,133C 1323.9,124.81 1336.23,116.643 1348.5,108.5 Z"/></g>
<g><path style="opacity:1" fill="#967e3b" d="M 404.5,303.5 C 505.824,301.883 595.824,332.383 674.5,395C 613.187,382.299 551.187,377.632 488.5,381C 465.072,382.236 441.739,384.403 418.5,387.5C 421.337,414.201 424.503,440.867 428,467.5C 437.976,520.765 459.309,568.765 492,611.5C 538.222,668.736 593.722,714.569 658.5,749C 699.154,770.44 741.488,787.774 785.5,801C 798.041,804.469 810.707,807.302 823.5,809.5C 823.5,810.833 823.5,812.167 823.5,813.5C 702.834,827.249 592.501,800.083 492.5,732C 412.262,673.382 358.095,596.215 330,500.5C 315.1,446.065 310.1,390.732 315,334.5C 315.865,329.375 317.198,324.375 319,319.5C 319.637,317.697 320.803,316.364 322.5,315.5C 349.509,308.404 376.843,304.404 404.5,303.5 Z"/></g>
<g><path style="opacity:1" fill="#967e3b" d="M 2276.5,303.5 C 2311.01,302.918 2345.01,306.751 2378.5,315C 2380.62,316.122 2382.46,317.622 2384,319.5C 2402.98,464.223 2361.48,588.39 2259.5,692C 2157.28,784.411 2036.95,825.744 1898.5,816C 1891.14,815.33 1883.8,814.496 1876.5,813.5C 1876.5,812.5 1876.5,811.5 1876.5,810.5C 1963.18,791.316 2042.51,756.149 2114.5,705C 2158.46,672.711 2195.96,634.211 2227,589.5C 2253.69,546.44 2270.69,499.774 2278,449.5C 2280.44,428.854 2282.6,408.187 2284.5,387.5C 2216.57,378.776 2148.57,378.276 2080.5,386C 2063.39,388.868 2046.39,391.868 2029.5,395C 2031.83,391.333 2034.83,388.333 2038.5,386C 2109.17,333.721 2188.5,306.221 2276.5,303.5 Z"/></g>
<g><path style="opacity:1" fill="#967e3b" d="M 359.5,895.5 C 359.44,894.957 359.107,894.624 358.5,894.5C 357.227,895.257 357.227,895.923 358.5,896.5C 396.666,998.821 459.666,1082.32 547.5,1147C 601.987,1184.06 661.653,1209.4 726.5,1223C 829.718,1243.35 933.718,1248.85 1038.5,1239.5C 1038.5,1240.83 1038.5,1242.17 1038.5,1243.5C 982.914,1256.38 926.914,1267.21 870.5,1276C 806.275,1285.34 741.942,1286.34 677.5,1279C 586.823,1269.58 506.49,1236.25 436.5,1179C 340.852,1096.28 272.686,994.778 232,874.5C 212.534,816.968 199.867,757.968 194,697.5C 193.168,686.152 193.334,674.819 194.5,663.5C 196.167,664.333 197.833,665.167 199.5,666C 262.744,732.779 335.744,786.112 418.5,826C 480.383,855.056 545.383,873.056 613.5,880C 667.804,882.939 722.137,885.272 776.5,887C 853.569,891.247 925.902,911.914 993.5,949C 1069.27,992.419 1133.6,1049.09 1186.5,1119C 1186.17,1119.17 1185.83,1119.33 1185.5,1119.5C 1117.28,1065.21 1041.28,1024.71 957.5,998C 922.129,987.793 886.129,980.793 849.5,977C 793.863,974.063 738.197,971.73 682.5,970C 596.127,963.657 511.794,946.99 429.5,920C 406.001,912.113 382.668,903.946 359.5,895.5 Z"/></g>
<g><path style="opacity:1" fill="#967e3b" d="M 2346.5,896.5 C 2346.5,895.167 2345.83,894.5 2344.5,894.5C 2270.73,923.588 2194.73,945.088 2116.5,959C 2089.31,963.482 2061.97,966.816 2034.5,969C 1987.86,971.297 1941.19,972.963 1894.5,974C 1811.7,976.701 1733.03,996.035 1658.5,1032C 1609.14,1055.66 1563.14,1084.33 1520.5,1118C 1519.67,1118.69 1519,1118.52 1518.5,1117.5C 1584.98,1027.52 1669.98,961.354 1773.5,919C 1822.31,901.214 1872.65,890.547 1924.5,887C 1964.83,885.429 2005.16,884.095 2045.5,883C 2184.75,876.264 2308.75,829.931 2417.5,744C 2447.7,719.144 2476.7,692.811 2504.5,665C 2506.02,663.991 2507.69,663.491 2509.5,663.5C 2510.03,701.603 2506.19,739.27 2498,776.5C 2467.15,929.087 2395.65,1058.59 2283.5,1165C 2214.63,1226.89 2133.97,1264.22 2041.5,1277C 1963.29,1286.36 1885.29,1284.69 1807.5,1272C 1760.07,1264.56 1713.07,1255.06 1666.5,1243.5C 1666.34,1242.13 1666.51,1240.79 1667,1239.5C 1770.24,1248.7 1872.74,1243.2 1974.5,1223C 2119.42,1190.85 2229.26,1111.01 2304,983.5C 2319.78,955.271 2333.95,926.271 2346.5,896.5 Z"/></g>
<g><path style="opacity:1" fill="#f1ede5" d="M 2344.5,894.5 C 2345.83,894.5 2346.5,895.167 2346.5,896.5C 2345.5,896.167 2344.83,895.5 2344.5,894.5 Z"/></g>
<g><path style="opacity:1" fill="#e7e1d2" d="M 359.5,895.5 C 359.5,896.167 359.167,896.5 358.5,896.5C 357.227,895.923 357.227,895.257 358.5,894.5C 359.107,894.624 359.44,894.957 359.5,895.5 Z"/></g>
<g><path style="opacity:1" fill="#967e3b" d="M 1341.5,1020.5 C 1344.75,1021.74 1347.08,1024.08 1348.5,1027.5C 1356.56,1028.61 1362.06,1032.94 1365,1040.5C 1373.94,1108.67 1398.6,1170.34 1439,1225.5C 1490.39,1290.64 1556.89,1332.14 1638.5,1350C 1678.61,1356.53 1718.94,1358.2 1759.5,1355C 1772.33,1353.81 1785,1351.64 1797.5,1348.5C 1798.93,1348.73 1799.43,1349.4 1799,1350.5C 1736.36,1390.62 1667.86,1408.78 1593.5,1405C 1541.22,1399.85 1493.22,1382.85 1449.5,1354C 1412.88,1329.88 1381.21,1300.38 1354.5,1265.5C 1351.63,1262.89 1348.8,1262.89 1346,1265.5C 1291.15,1337.04 1219.32,1381.87 1130.5,1400C 1075.2,1407.7 1021.53,1401.37 969.5,1381C 956.581,1375.47 943.581,1370.14 930.5,1365C 921.682,1361.09 913.348,1356.43 905.5,1351C 902.838,1349.06 902.504,1347.22 904.5,1345.5C 998.946,1365.22 1088.28,1351.72 1172.5,1305C 1257.79,1251.36 1310.62,1174.86 1331,1075.5C 1333.86,1056.99 1337.36,1038.66 1341.5,1020.5 Z"/></g>
<g><path style="opacity:1" fill="#957e3a" d="M 1046.5,1238.5 C 1047.57,1239.25 1047.74,1240.25 1047,1241.5C 1046.52,1240.55 1046.35,1239.55 1046.5,1238.5 Z"/></g>
<g><path style="opacity:1" fill="#957e3a" d="M 1039.5,1239.5 C 1040.83,1239.5 1042.17,1239.5 1043.5,1239.5C 1043.5,1240.5 1043.5,1241.5 1043.5,1242.5C 1042.17,1242.5 1040.83,1242.5 1039.5,1242.5C 1039.5,1241.5 1039.5,1240.5 1039.5,1239.5 Z"/></g>
<g><path style="opacity:1" fill="#957e3a" d="M 1661.5,1239.5 C 1663.46,1239.95 1663.8,1240.95 1662.5,1242.5C 1661.61,1241.68 1661.28,1240.68 1661.5,1239.5 Z"/></g>
<g><path style="opacity:1" fill="#957e3a" d="M 1800.5,1347.5 C 1801.83,1348.17 1801.83,1348.17 1800.5,1347.5 Z"/></g>
</svg>
