<?xml version="1.0" encoding="UTF-8"?>
<svg xmlns="http://www.w3.org/2000/svg" version="1.1" viewBox="0 0 257 256.4">
  <defs>
    <style>
      .cls-1 {
        fill: #9b7d2c;
      }
    </style>
  </defs>
  <!-- Generator: Adobe Illustrator 28.6.0, SVG Export Plug-In . SVG Version: 1.2.0 Build 709)  -->
  <g>
    <g id="Layer_1">
      <g>
        <g>
          <path class="cls-1" d="M164.5,66.7c-.4,12.3-4.5,22.8-6.9,27.3-5.9,11.1-13.8,16.1-19.5,20.1-.8.5-.3.2-.3-1,3-3,7.9-8,10.9-14.1,2.5-5,5.4-12,6.6-21.4,1.1-8-.2-14.2-1-17.8-.4-1.7-1.9-8.1-6.1-15.8-5.9-10.7-13.8-16.7-19.8-21.1-6.1,4.3-14,10.3-20,20.9-4.3,7.6-5.8,14-6.2,15.7-.8,3.5-2.1,9.7-1,17.7,1.3,9.3,4.2,16.3,6.7,21.3,3,6,8,11,11,14,0,1.2.5,1.5-.3,1-5.7-4-13.7-9-19.7-20-2.4-4.4-6.6-14.8-7-27.1,0-2-.2-11.4,4.1-22.6,3.5-9,8.2-14.9,11.3-18.7,3.9-4.8,10.5-11.7,20.6-18,.2-.1.3-.2.5-.3.2.1.3.2.5.3,9.9,6.3,16.4,13.3,20.3,18.1,3,3.8,7.7,9.7,11.1,18.8,4.3,11.3,4.1,20.7,4,22.7Z"/>
          <path class="cls-1" d="M203,39c4-1,9.1-1.8,15-2,5.4-.1,10.2.3,14,1-.6,4.8,0,16.1-11,28-12.3,13.4-30.4,18.3-35,19,1.7.4,26,4.1,44-14,17-17.2,13.4-38.9,13-41-4-1-12.2-2.4-22,0-8.8,2.2-14.8,6.4-18,9Z"/>
          <path class="cls-1" d="M170,12c3.7,4.3,12.6,15.9,14,33,2.2,26.4-15.3,44.3-18,47,17.9-9.2,29.5-27.3,30-47C196.8,17.7,176.1,1.5,174,0c-2.3.7-8.3,2.9-13,9-3.6,4.8-4.7,9.6-5,12,1.5-1.5,3.5-3.3,6-5,3-2,5.8-3.2,8-4Z"/>
          <path class="cls-1" d="M146,120c5.3-7.1,14.6-17.5,29-23,17.6-6.8,28.8-1.1,48-7,8.5-2.6,20.8-8.2,34-22,.1,3.4-.5,34.4-26,57-18,16-44,14-71,7,4.9,1.2,33,3,51-6,18.6-9.3,25.6-26.4,28-32-5.3,2.2-13.6,5.1-24,7-16.3,2.9-23.7.7-36,3-8.2,1.6-19.8,5.4-33,16Z"/>
          <path class="cls-1" d="M128.5,109c.8,0,1.5.6,1.6,1.5.5,4.8,3.1,18.5,15.9,27.8,14.8,10.7,30.9,6.6,33,6-1.6,1.1-15,10.1-31,5-10.7-3.4-17.4-11.3-19.6-14.4-2.4,3.3-9,10.8-19.4,14.1-16,5.1-29.4-3.9-31-5,2.2.6,18.2,4.5,33-6,12.8-9.1,15.3-22.8,15.9-27.6s.8-1.4,1.6-1.4h0Z"/>
          <path class="cls-1" d="M54,39c-4-1-9.1-1.8-15-2-5.4-.1-10.2.3-14,1,.6,4.8,0,16.1,11,28,12.3,13.4,30.4,18.3,35,19-1.7.4-26,4.1-44-14C10,53.8,13.6,32.1,14,30c4-1,12.2-2.4,22,0,8.8,2.2,14.8,6.4,18,9Z"/>
          <path class="cls-1" d="M101,21c-1.5-1.5-3.5-3.3-6-5-3-2-5.8-3.2-8-4-3.7,4.3-12.6,15.9-14,33-2.2,26.4,15.3,44.3,18,47-17.9-9.2-29.5-27.3-30-47C60.3,17.7,81,1.5,83,0"/>
          <path class="cls-1" d="M83,0c2.3.7,8.3,2.9,13,9,3.6,4.8,4.7,9.6,5,12"/>
          <path class="cls-1" d="M111,120c-5.3-7.1-14.6-17.5-29-23-17.6-6.8-28.8-1.1-48-7C25.6,87.4,13.2,81.8,0,68c-.1,3.4.5,34.4,26,57,18,16,44,14,71,7-4.9,1.2-33,3-51-6-18.6-9.3-25.6-26.4-28-32,5.3,2.2,13.6,5.1,24,7,16.3,2.9,23.7.7,36,3,8.2,1.6,19.8,5.4,33,16"/>
        </g>
        <g>
          <path d="M19.2,171.7h33.2l3.8,10.8-2.6,1c-.6-1.8-1.3-3.1-2.1-4.1s-1.7-1.9-2.7-2.6c-1.1-.7-2.1-1.2-3.2-1.4-1.1-.2-3-.4-5.9-.4h-9.9v15h4.9c1.8,0,3.2-.3,4.1-.9s1.6-1.4,1.9-2.3c.3-.7.4-1.9.4-3.6v-.7h2.9v17.9h-2.9v-1.6c0-1.4-.1-2.4-.3-3s-.6-1.2-1.1-1.7c-.5-.5-1.1-.9-1.8-1.1s-1.7-.3-3.2-.3h-4.9v13.3c0,1.4,0,2.2.2,2.5s.3.5.6.7c.3.1,1.1.2,2.4.2h6.1c3.4,0,6.1-.4,8-1.2,1.9-.8,3.6-2.1,5.1-3.8,1.2-1.3,2.3-3.2,3.3-5.6l2.7.9-4.6,12.8H19.2v-2.5h1.2c1.4,0,2.2,0,2.5-.3.5-.3.9-.7,1.2-1.2.2-.4.3-1.2.3-2.5v-28.2c0-1.3-.1-2.1-.4-2.6-.3-.4-.7-.8-1.3-1-.3-.1-1.5-.2-3.5-.2v-2.5Z"/>
          <path d="M66.9,171.7h21.1c4,0,7,.4,9.1,1.2s3.6,2,4.7,3.6c1.1,1.6,1.7,3.4,1.7,5.5s-.5,4-1.6,5.7c-1.1,1.7-2.6,2.9-4.7,3.9-2,.9-4.7,1.4-8.1,1.5l10.8,13.2c.9,1.1,1.5,1.8,1.7,2,.7.6,1.4,1.1,2.2,1.4.8.3,1.6.5,2.5.5h.7v2.5h-9.3l-15-19.5h-5.3v12.6c0,1.4,0,2.3.1,2.6.2.7.6,1.1,1,1.4.5.3,1.4.4,2.8.4h1.1v2.5h-15.6v-2.5h1.4c1.1,0,1.8,0,2.1-.2.4-.1.7-.4,1-.7.3-.3.5-.8.6-1.3,0-.2,0-1.2,0-3v-26.7c0-1.2-.1-2-.4-2.6s-.6-.9-1-1.1c-.4-.2-1.1-.3-2.2-.3h-1.7v-2.5ZM77.5,174.9v15.4h8.4c2.9,0,4.9-.2,6-.5,1.6-.5,2.9-1.3,3.9-2.6.9-1.2,1.4-2.8,1.4-4.8s-.3-3-1-4.1c-.7-1.1-1.6-2-2.8-2.5-1.2-.6-2.9-.8-5.3-.8h-10.6Z"/>
          <path d="M129.8,171.7h4.8l12.7,34.2c.6,1.7,1.3,2.9,1.9,3.4s1.5.8,2.6.8h.6v2.5h-14.5v-2.5c.5,0,.9,0,1.4,0,.9,0,1.6,0,1.8-.3.6-.4.8-.8.8-1.4s-.3-1.4-.8-3l-2.7-7.9h-14.8l-3.2,8.8c-.3.9-.5,1.6-.5,1.9s.1.7.3,1,.5.5.8.7.9.2,1.7.2,1,0,1.3,0v2.5h-12.2v-2.5c1.1,0,1.9-.1,2.4-.3s.9-.6,1.3-1.1.9-1.5,1.5-3.1l12.8-33.8ZM124.6,194.5h12.6l-6.3-17.6-6.3,17.6Z"/>
          <path d="M157.2,171.7h15.3v2.5h-1.7c-1.1,0-1.7,0-2,.3-.3.2-.5.5-.5,1s.2.9.6,1.6c0,.2.2.4.4.7l8,14.8,8.8-15.3c.4-.6.6-1,.6-1.2s.1-.4.1-.6,0-.5-.2-.7-.4-.3-.7-.4c-.2,0-.7,0-1.6,0h-1.5v-2.5h12.6v2.5c-1.1,0-1.9,0-2.5.2-.5.2-1,.4-1.3.7-.3.3-.8,1-1.5,2.1l-11.1,18.4v10.3c0,1.5.1,2.5.4,2.9s.6.8,1.2,1,1.8.3,3.7.3v2.5h-16v-2.5h1.2c1.3,0,2.2-.1,2.6-.4s.8-.6,1-1.1c.2-.4.3-1.3.3-2.7v-9.2s-10.8-19.2-10.8-19.2c-.9-1.6-1.6-2.5-2.2-2.8s-1.6-.5-3.2-.5v-2.5Z"/>
          <path d="M218,171.7h4.8l12.7,34.2c.6,1.7,1.3,2.9,1.9,3.4s1.5.8,2.6.8h.6v2.5h-14.5v-2.5c.5,0,.9,0,1.4,0,.9,0,1.6,0,1.8-.3.6-.4.8-.8.8-1.4s-.3-1.4-.8-3l-2.7-7.9h-14.8l-3.2,8.8c-.3.9-.5,1.6-.5,1.9s.1.7.3,1,.5.5.8.7.9.2,1.7.2,1,0,1.3,0v2.5h-12.2v-2.5c1.1,0,1.9-.1,2.4-.3s.9-.6,1.3-1.1.9-1.5,1.5-3.1l12.8-33.8ZM212.8,194.5h12.6l-6.3-17.6-6.3,17.6Z"/>
        </g>
        <g>
          <path class="cls-1" d="M81.3,246v-17.1h9.6v1.8h-7.1v5.7h6v1.8h-6v7.8h-2.4Z"/>
          <path class="cls-1" d="M105.7,246.4c-2.4,0-4.4-.8-5.8-2.4s-2.2-3.8-2.2-6.5.7-4.9,2.2-6.5c1.5-1.6,3.4-2.4,5.8-2.4s4.4.8,5.8,2.4c1.5,1.6,2.2,3.8,2.2,6.5s-.7,4.9-2.2,6.5c-1.5,1.6-3.4,2.4-5.8,2.4ZM105.7,244.6c1.7,0,3-.6,4-1.9,1-1.3,1.4-3,1.4-5.3s-.5-4-1.4-5.3c-1-1.3-2.3-1.9-4-1.9s-3,.6-4,1.9c-1,1.3-1.4,3-1.4,5.3s.5,4,1.4,5.3c1,1.3,2.3,1.9,4,1.9Z"/>
          <path class="cls-1" d="M128.8,246.4c-2.4,0-4.4-.8-5.8-2.4s-2.2-3.8-2.2-6.5.7-4.9,2.2-6.5c1.5-1.6,3.4-2.4,5.8-2.4s4.4.8,5.8,2.4c1.5,1.6,2.2,3.8,2.2,6.5s-.7,4.9-2.2,6.5c-1.5,1.6-3.4,2.4-5.8,2.4ZM128.8,244.6c1.7,0,3-.6,4-1.9,1-1.3,1.4-3,1.4-5.3s-.5-4-1.4-5.3c-1-1.3-2.3-1.9-4-1.9s-3,.6-4,1.9c-1,1.3-1.4,3-1.4,5.3s.5,4,1.4,5.3c1,1.3,2.3,1.9,4,1.9Z"/>
          <path class="cls-1" d="M145,246v-17.1h5.7c1.7,0,3.1.2,4.1.6,1,.4,1.9,1,2.7,1.9,1.2,1.4,1.8,3.3,1.8,5.7s-.7,4.8-2.1,6.4c-.8.9-1.7,1.5-2.7,1.9-1,.4-2.3.6-3.8.6h-5.7ZM147.4,244.2h3.1c2.2,0,3.8-.6,4.7-1.8,1-1.3,1.5-3,1.5-5.1s-.5-3.6-1.5-4.7c-.6-.7-1.3-1.2-2.1-1.4-.8-.3-2.1-.4-3.7-.4h-2v13.5Z"/>
          <path class="cls-1" d="M166.4,245.7v-2.4c1.9.9,3.5,1.3,4.8,1.3s1.7-.3,2.3-.8.9-1.2.9-2-.2-1.2-.6-1.7c-.4-.5-1.1-1-2.1-1.6l-1.2-.7c-1.5-.8-2.5-1.6-3.1-2.4-.6-.7-.9-1.6-.9-2.6s.5-2.4,1.4-3.3c1-.9,2.2-1.3,3.7-1.3s2.7.2,4.2.7v2.2c-1.8-.7-3.1-1.1-4-1.1s-1.5.2-2.1.7c-.5.4-.8,1-.8,1.7s.2,1.1.6,1.5c.4.4,1.1,1,2.2,1.6l1.2.7c1.5.8,2.5,1.6,3.1,2.4.6.7.9,1.6.9,2.7,0,1.5-.5,2.7-1.6,3.6-1.1.9-2.5,1.4-4.4,1.4s-2.6-.3-4.4-.8Z"/>
        </g>
      </g>
    </g>
  </g>
</svg>