<svg xmlns="http://www.w3.org/2000/svg" width="1280" height="800" version="1.0" viewBox="0 0 960 600"><defs><clipPath id="a"><path d="M0 198.102h480.305V600H0Zm0 0"/></clipPath></defs><path fill="#fff" d="M-96-60h1152v720H-96z"/><path fill="#68b666" d="M-96-60h1152v720H-96z"/><path fill="#f7ba20" d="m292.488 426.449-19.21 27.457-10.301-34.445c-19.59-61.399-58.516-71.57-58.645-71.57l-66.02-32.16s-56.605 6.484-82.937 23.39h-.129s-124.281 63.813-151.883 100.55c-27.605 36.61-13.23 115.548-13.23 115.548s99.73-15.254 125.297-31.399L2.582 500.05l25.695-17.667C17.847 551.789 8.563 620.176 8.563 620.176s97.949 42.586 206.964-7.754l4.832-21.102.258 3.688s34.98 30.379 67.164 25.93 50.5-73.727 50.5-73.727Zm0 0"/><path fill="#409780" d="M434.832 306.578v120.89a13.676 13.676 0 0 1-13.738 13.727c-7.633 0-13.739-6.101-13.992-15.379v-120.89c4.578 2.797 9.156 3.558 13.992 3.558 4.832 0 9.414-.761 13.738-1.906M281.93 318.02c-5.598 0-10.176 4.578-10.176 10.168v.89c0 5.594 4.578 10.172 10.176 10.172s10.175-4.578 10.175-10.172v-.89c.13-5.59-4.453-10.168-10.175-10.168m26.84-91.524c-4.707-2.543-10.176-3.941-16.665-3.941-8.14 0-17.808.761-24.421 5.976-2.293 1.778-4.075 4.45-4.582 7.246-.508 2.922.636 6.102 2.925 7.88a10.4 10.4 0 0 0 3.692 1.527c5.851 1.27 11.703-1.91 17.68-1.91 2.8 0 5.214.511 7.378 1.527 2.036 1.015 3.688 2.414 4.832 4.32 1.145 1.91 1.782 4.195 1.782 6.867 0 4.32-1.145 8.133-3.434 11.313-2.289 3.176-5.344 6.738-9.285 11.058-2.29 2.414-4.324 4.957-6.36 7.63-3.69 4.956-5.851 9.53-4.964 15.632.257 1.527.636 3.18 1.402 4.324.254.38.508.633.89.887 1.145 1.02 2.798 1.273 4.325 1.398 3.816.254 7.887-.761 10.305-3.683 1.906-2.29 2.414-5.469 3.433-8.137 3.563-9.281 12.594-15.762 18.445-23.644 2.16-3.051 3.942-6.227 5.215-9.532 1.274-3.308 1.907-6.867 1.907-10.808 0-5.719-1.27-10.805-3.817-15.38-2.414-4.448-5.976-8.007-10.683-10.55m0 0"/><path fill="#e78022" d="M219.469 256.621c.89 24.152-1.399 51.356-26.457 52.629-1.528 10.55-3.434 25.168 0 32.922 12.086 27.71-49.102 5.976-57.242-21.738l14.628-28.602c-3.562-5.973-5.726-13.344-7.125-21.734-.636-4.07-.636-7.883 0-11.567-.636-1.656-1.015-3.308-.89-4.832.383-4.578 2.672-7.375 6.488-8.137 7.379-9.785 20.606-15.89 35.746-17.542 16.41-1.524 33.961 5.214 34.852 28.601M41.637 623.988c-.254-4.32-1.02-8.898-2.035-13.726-6.106-26.567-17.43-59.11-28.114-84.278-20.097 10.04-66.02 19.45-95.152 24.786 10.05 21.23 25.059 45.636 46.812 73.601-19.336-1.906-46.683-2.922-50.753 6.23-2.547 5.59 3.687 8.899 3.687 8.899s-9.414-.766-10.812 7.242c-1.016 6.23 7.125 9.664 7.125 9.664s-7.125.38-8.778 8.262c-1.781 8.77 10.938 10.297 10.938 10.297s-9.793.254-9.922 9.914c-.254 17.922 53.172 11.82 100.75 3.812 47.574-7.879 36.379-64.703 36.379-64.703Zm231.64-170.082 1.657-2.414a80 80 0 0 1-1.657 2.414m173.512-85.422c0-5.593-4.453-10.043-10.05-10.043 5.597 0 10.05-4.449 10.05-10.039 0-5.593-4.453-10.043-10.05-10.043h-1.782c-1.016-2.414-2.668-4.957-4.703-7.12 0-.509-12.086-13.22-23.152-11.692-14.25 1.906-13.485 2.797-26.207 8.262-13.356 5.593-28.875 34.32-28.875 34.32s-26.715 25.426-59.024 65.848l39.942 105.507c3.562-8.898 7.378-18.687 11.449-29.875 9.16-25.043 27.476-56.312 35.238-69.277 4.832-7.883 11.957-13.984 18.7-18.434 1.78 1.653 4.195 2.797 6.866 2.797h31.422c5.598 0 10.047-4.449 10.047-10.043 0-5.464-4.45-10.039-10.047-10.039 5.469 0 10.047-4.449 10.047-10.043s-4.45-10.043-10.047-10.043c5.723 0 10.176-4.449 10.176-10.043m0 0"/><path fill="#6090f2" d="M472.23 257.387c0 28.218-22.898 51.097-51.136 51.097-28.242 0-51.137-22.879-51.137-51.097 0-28.223 22.895-51.102 51.137-51.102 28.238 0 51.136 22.88 51.136 51.102m0 0"/><g clip-path="url(#a)"><path d="M480.371 257.387c0-32.672-26.586-59.239-59.277-59.239s-59.278 26.567-59.278 59.239c0 27.457 18.825 50.718 44.395 57.328v4.066c-5.852.254-19.211 3.434-29.512 10.297-11.703 7.883-24.172 30.383-25.316 32.543-2.29 2.16-30.656 30.125-57.88 64.574v-.125c-.124-.382-.378-.507-.76-.636-.384 0-.638.128-.891.382l-18.063 25.805-9.797-32.543c-17.933-60.762-65.004-76.144-70.219-77.668-3.05-7.5-1.27-21.101.13-31.273 25.187-1.907 27.476-29.489 26.585-53.516-.129-2.668-.383-5.082-.89-7.371 3.054-.383 6.105-2.797 8.27-6.61 3.179-5.468 4.577-13.855.636-20.464-4.453-7.375-8.652-6.867-14.375-6.23-6.234.761-14.629 1.652-28.879-5.34-5.723-2.797-13.48-2.29-21.367 1.527-13.36 6.48-23.406 20.082-26.969 36.48-5.98 27.711 9.414 42.84 11.574 44.875l-10.812 21.227c-5.598.637-57.496 7.5-82.43 23.39-.125 0-.125.125-.254.125-.254.13-31.547 16.274-65.64 36.61-45.918 27.332-75.051 48.941-86.625 64.195-27.606 36.61-13.614 115.55-13.485 116.313.125.507.508.761.89.761h.126c1.273-.254 11.324-1.78 25.441-4.32 10.688 22.242 25.824 46.27 45.285 71.438-29.511-2.797-46.175-.38-49.609 6.992-1.652 3.687-.125 6.61 1.781 8.515-3.687.508-8.14 2.543-9.031 8.008-.762 4.703 2.926 7.883 5.469 9.406-2.414.891-5.852 3.051-6.996 8.391q-.76 3.435 1.144 6.102c1.656 2.289 4.324 3.558 6.617 4.324-3.054 1.144-6.617 3.937-6.742 10.039 0 2.672 1.016 5.086 3.18 6.867 3.308 2.797 9.668 5.719 27.223 5.719 14.628 0 36.89-2.035 71.617-7.754 12.847-2.16 22.64-8.008 29.129-17.414 9.668-13.985 9.668-32.035 8.906-41.695 17.555 3.433 38.926 6.738 63.094 6.738 32.183 0 69.453-5.723 109.144-24.028.254-.125.38-.378.508-.632l4.707-16.145c6.36 5.086 37.781 29.238 66.781 25.168 13.739-1.906 26.461-15 38.035-39.023 8.524-17.797 13.23-35.211 13.23-35.34v-.637l-4.96-13.219a1357 1357 0 0 0 11.32-29.492c9.16-25.168 27.73-56.691 35.239-69.148 5.085-8.266 13.23-14.621 17.808-17.797 1.906 1.523 4.324 2.543 6.996 2.543h1.016v7.879c0 8.136 6.617 14.746 14.758 14.746s14.757-6.61 14.757-14.746v-7.88h1.016c6.106 0 10.942-4.96 10.942-10.933 0-4.449-2.672-8.261-6.489-10.043 3.817-1.652 6.488-5.593 6.488-10.043s-2.671-8.261-6.488-10.039c3.817-1.652 6.488-5.594 6.488-10.043s-2.671-8.261-6.488-10.043c3.817-1.652 6.488-5.593 6.488-10.043 0-6.101-4.96-10.93-10.94-10.93h-1.017v-22.882c25.313-6.485 44.266-29.746 44.266-57.328m-327.047-10.043c1.016-1.145 2.035-1.653 3.18-1.528 1.527.13 2.543.637 3.434 1.653 1.527 1.781 2.289 5.215 1.91 9.664v.633l7.12 4.07-.382-2.035c-.125-.508-2.414-12.457 10.559-17.797 6.234-2.668 12.34-.254 19.464 2.414 5.47 2.164 11.703 4.578 19.082 4.832.508 2.29.891 4.703 1.016 7.371.89 23.52-1.398 50.594-25.95 51.61h-3.944c-.762 0-1.524 0-2.29-.126h-.761c-1.02 0-1.91-.128-2.926-.253h-.129c-.89-.13-1.906-.254-2.797-.383h-.383c-11.957-2.035-21.496-8.008-27.859-17.414l-.125-.254c1.781-4.832 4.578-13.856 3.941-21.356v-.507l-.379-.254c-.128-.13-3.437-2.036-4.582-7.63-.89-3.433.13-9.66 2.801-12.71m-2.289 45.254c8.012 10.93 20.098 16.906 35.363 17.668h5.469c-1.398 10.55-3.18 24.535.254 32.289 1.274 2.922 2.418 6.863.508 9.152-1.145 1.398-3.305 2.16-6.36 2.285a29.6 29.6 0 0 1-6.234-.633c-14.883-2.925-38.414-16.78-43.375-32.796Zm-260.012 261.476c-1.527-8.898-12.21-80.082 13.23-113.894 11.192-14.875 40.958-36.993 85.99-63.813 34.093-20.34 65.257-36.355 65.64-36.484 7.758-4.957 15.644-7.371 23.277-7.371 4.2 0 8.27.761 12.469 2.16 10.812 3.812 20.86 12.71 29 25.55 5.219 8.137 6.363 18.56 3.562 29.872-5.468 22.246-25.058 45.383-51.261 60.508L2.074 499.289c-.383.254-.508.762-.254 1.27l12.465 22.753a40 40 0 0 1-3.433 1.907c-17.809 8.773-56.227 17.289-83.45 22.5-.379.129-.761.129-1.27.254-.253 0-.51.129-.765.129-17.043 3.175-30.656 5.34-34.344 5.972M16.32 523.313l-12.593-22.88 23.28-16.019c-2.671 17.672-5.472 36.738-8.398 56.95-1.906-5.087-3.941-10.044-5.976-14.872a42 42 0 0 0 3.433-1.906c.383-.383.508-.89.254-1.274M-94.602 669.496c-.89-1.398-1.273-2.797-.89-4.574 1.398-6.992 7.633-7.5 7.887-7.5.378 0 25.566-1.399 36.253 0l.254-1.906c-10.558-1.399-33.71-.13-36.382 0-1.145-.508-7.122-3.559-6.36-8.52 1.02-5.973 7.125-6.48 9.16-6.48h.762c.254 0 19.973-.891 33.328 2.16l.383-1.906c-12.723-2.926-31.168-2.29-33.582-2.29-1.02-.636-4.961-3.304-3.055-7.5 2.926-6.48 20.48-8.515 49.485-5.718 5.086 5.34 11.066 7.246 14.882 7.879-7.632 3.816-13.867 10.933-18.191 21.101-3.05 7.246-4.324 13.73-4.707 15.89h-.89c-22.641 0-37.524 3.306-39.305 3.813-.89-.125-6.618-1.144-9.032-4.449m127.715 1.781c-6.234 8.899-15.648 14.493-27.86 16.524-36 5.976-85.226 12.84-97.187 2.543-1.777-1.524-2.543-3.305-2.543-5.465.13-8.645 8.653-9.027 9.032-9.027h.254c.129 0 15.902-3.938 40.707-3.813.507 0 .89-.379.89-.89 0-.254 4.2-30.633 25.442-37.754.507-.125.765-.633.636-1.016-.129-.508-.507-.89-1.02-.762-.124 0-10.046.383-17.679-7.883-19.844-25.422-35.363-49.703-46.176-72.199 24.551-4.45 59.914-11.695 82.555-19.832.766-.254 1.527-.508 2.293-.89.125 0 .125 0 .254-.125.762-.254 1.398-.512 2.035-.766h.125c2.164-.887 4.07-1.652 5.98-2.54h.13c2.796 6.61 5.468 13.473 8.14 20.466q.19.569.379 1.144c7.379 19.574 13.738 39.785 17.938 56.692 0 .129.128.382.128.511.38 1.524.762 2.922 1.016 4.446 1.02 4.449 1.652 8.773 2.035 12.968v.633c0 .258.13.383.254.512.766 3.812 4.453 28.98-7.758 46.523m304.153-124.066c-1.403 4.832-19.465 68.644-49.614 72.71-29.511 4.067-61.82-21.862-66.02-25.296 2.036-8.262 24.427-104.488-6.359-226.266l-1.91.508c31.93 126.352 6.489 224.996 6.235 225.887l-4.961 17.031c-69.2 31.781-130.77 25.043-171.219 16.906-.129-1.777-.383-3.05-.512-3.812-.125-.508-.125-.89-.125-.89 0-.126-.129-.255-.254-.38-.382-4.324-1.02-8.773-2.035-13.347-.383-1.399-.637-2.926-1.02-4.45 0-.128-.124-.382-.124-.507-4.2-17.035-10.559-37.117-18.192-57.457l-.383-1.145c-.253-.508-.382-1.015-.636-1.527 3.18-21.989 6.234-42.836 9.16-61.903h-.129l44.906-30.89c26.586-15.254 46.43-38.899 52.028-61.653 2.925-11.949 1.652-22.753-3.817-31.398-8.394-13.219-18.828-22.371-30.02-26.312-5.726-2.036-11.577-2.668-17.43-1.907 23.915-8.77 54.063-13.093 61.696-14.11l-1.527 3.177-.254.507.129.383c.125.254.125.508.254.762.125.254.125.512.254.766 3.308 9.023 11.703 17.16 20.988 23.132.89.637 1.91 1.145 2.926 1.782.254.125.512.254.765.508.762.382 1.524.761 2.16 1.144.891.508 1.782.89 2.547 1.27.254.128.38.128.633.253 1.145.512 2.164 1.02 3.309 1.528.89.379 1.781.762 2.543 1.015.383.13.637.254 1.02.383.507.125 1.015.38 1.527.508.761.254 1.523.508 2.16.637.254 0 .383.125.637.125l3.054.762q1.142.193 2.29.382h.507c.762.13 1.399.13 2.035.13h2.418c.637 0 1.145-.13 1.653-.13h.254c.382-.125.89-.125 1.273-.254.129 0 .254-.128.383-.128.508-.125.89-.38 1.27-.508 0 0 .128 0 .128-.125.383-.13.637-.383 1.016-.637.129-.125.129-.125.258-.254.254-.254.632-.508.886-.89.258-.254.383-.637.637-.891 0-.125.129-.254.129-.254.125-.254.254-.508.254-.762 0-.125.129-.254.129-.383.125-.253.125-.507.125-.761v-1.778c0-.254 0-.636-.125-.89v-.508c0-.383-.13-.766-.258-1.145 0-.129 0-.254-.125-.254-.129-.507-.254-1.02-.508-1.527 9.285 3.05 50.883 19.832 67.547 76.016l10.3 34.449c.13.383.384.637.766.637.38.125.762-.13.891-.383l18.188-25.93 40.836 107.668Zm41.722-113.387c-7.504 12.457-26.078 44.235-35.363 69.531-3.562 9.66-6.996 18.942-10.43 27.586l-38.925-102.71c27.984-35.465 57.242-64.196 58.515-65.465l.125-.254c.13-.254 13.102-24.153 24.805-32.035 10.558-7.118 24.426-10.043 29.387-10.043 5.214 0 8.394 1.02 18.191 7.753 3.812 2.543 6.996 6.36 8.648 10.043v.13c.13.253.254.378.254.636 0 .125.13.254.13.379.124.254.253.508.253.762.125.254.125.511.254.636 0 .13.125.254.125.383.129.254.129.633.129.89v.126c0 .383.129.637.129 1.015v1.145c0 .254 0 .508-.13.637v.254c0 .129-.128.382-.128.507 0 .13-.125.254-.125.383 0 .125-.129.254-.254.38-.129.128-.129.257-.254.382l-.254.254c-.129.129-.257.254-.257.254-.125.129-.125.129-.254.254a1.7 1.7 0 0 1-.508.383c-.13.128-.254.128-.383.253-.125.13-.379.13-.508.254-.129 0-.254.13-.383.13-.125 0-.379.124-.507.124-.125 0-.254 0-.383.13-.254 0-.38.124-.633.124h-.258c-.379 0-.762.13-1.144.13-11.575.253-20.86-11.188-20.86-11.313-.254-.13-.512-.254-.765-.254-.508 0-.891.379-.891.761-.125 1.016-1.781 10.043-7.25 18.051 0 0-3.18 5.211-12.34 10.297l.89 1.652c3.946-2.164 6.743-4.324 8.778-6.101a10.83 10.83 0 0 0-2.035 6.355c0 4.45 2.672 8.262 6.488 10.043-3.816 1.653-6.488 5.59-6.488 10.04s2.672 8.265 6.488 10.042c-3.816 1.653-6.488 5.594-6.488 10.043 0 2.668 1.02 5.211 2.672 7.117-4.832 3.18-12.977 9.536-18.063 17.926m29.13-115.168v-3.558c4.198.886 8.523 1.398 12.976 1.398s8.648-.512 12.847-1.398v19.191c-1.91-2.793-4.453-5.59-7.503-7.625-9.668-6.484-13.231-7.754-18.32-8.008m-7.25 39.785c-.638.254-1.274.637-1.907 1.02.508-.637.89-1.02 1.144-1.399.38.125.633.38.762.38m33.073 68.899c0 6.992-5.722 12.84-12.847 12.84-6.996 0-12.848-5.723-12.848-12.84v-7.88h25.567v7.88Zm11.957-18.813c0 4.957-4.07 9.024-9.03 9.024h-31.423c-4.96 0-9.03-4.067-9.03-9.024s4.07-9.027 9.03-9.027h31.422c4.961 0 9.031 4.07 9.031 9.027m0-19.957c0 4.957-4.07 9.024-9.03 9.024h-31.423c-4.96 0-9.03-4.067-9.03-9.024s4.07-9.027 9.03-9.027h31.422c4.961-.125 9.031 3.941 9.031 9.027m0-20.086c0 4.957-4.07 9.028-9.03 9.028h-31.423c-4.96 0-9.03-4.07-9.03-9.028 0-4.957 4.07-9.023 9.03-9.023h31.422c4.961 0 9.031 4.066 9.031 9.023m-9.921-20.593c0-.125.128-.125.128-.254 0 0 0-.125.125-.125.13-.254.254-.383.383-.637 0 0 0-.125.125-.125.13-.258.258-.637.258-.89v-.13c.125-.253.125-.632.125-.89v-2.16c0-.38-.125-.633-.125-1.016v-.129c-.129-.762-.383-1.523-.637-2.414h.38c4.96 0 9.03 4.067 9.03 9.027 0 4.957-4.07 9.024-9.03 9.024H405.32c-1.398 0-2.8-.383-4.07-1.016 4.07-6.23 5.852-12.969 6.613-16.144 2.164 2.414 6.996 6.992 13.356 9.152.258.125.383.125.636.254.383.125.637.254 1.02.254.379.129.762.129 1.016.254.254 0 .511.129.765.129.637.125 1.27.254 2.035.254.508 0 1.145.125 1.782.125h.632c.383 0 .766 0 1.149-.125h.379c.383 0 .765-.13 1.02-.254h.124c.383-.13.637-.254.891-.254.129 0 .129-.13.254-.13.258-.128.383-.253.637-.253 0 0 .128-.129.253-.129.258-.125.383-.254.637-.379.13-.129.254-.129.254-.254l.254-.254c.383.254.766-.129 1.02-.511m-14.883-40.676c-27.477 0-49.867-22.371-49.867-49.828s22.39-49.832 49.867-49.832 49.863 22.375 49.863 49.832-22.387 49.828-49.863 49.828m-227.32-42.711c1.273 0 2.292 1.398 2.163 2.922 0 1.652-1.019 2.926-2.289 2.926-1.273 0-2.289-1.399-2.164-2.926.13-1.524 1.02-2.922 2.29-2.922m16.156 3.18c0 1.652-1.016 2.921-2.29 2.921-1.273 0-2.288-1.398-2.163-2.921.128-1.528 1.02-2.926 2.289-2.926 1.273 0 2.164 1.398 2.164 2.926m-9.922 14.488c-.762 0-1.528-.125-1.906-.125l.253-1.906c1.399.254 2.926.125 3.18-.13v-.124c-.637-2.418-1.398-10.809-1.527-11.188l1.906-.129c0 .13.766 8.645 1.402 10.805.254.766 0 1.398-.382 1.906-.508.766-1.782.89-2.926.89m2.672 10.933-1.274 1.399c-2.414-2.035-6.996-5.211-9.285-4.957l-.254-1.906c3.817-.383 10.176 4.957 10.813 5.464m-16.54-30.636-1.015-1.524c.637-.382 5.723-3.941 9.16-3.812v1.906c-2.418-.129-6.617 2.414-8.144 3.43m19.083-3.305-.125-1.906c3.304-.254 8.648 3.05 9.285 3.433l-1.02 1.653c-1.398-.89-5.851-3.305-8.14-3.18m228.336-20.719 1.273 1.399-44.648 40.804-1.274-1.398Zm-.38 18.43 1.27 1.398-25.82 23.645-1.274-1.398Zm18.825-17.16 1.273 1.398-9.543 8.774-1.27-1.399Zm0 0"/></g><path d="M533.685 290.922q3.152.644 4.922 2.015 1.78 1.361 1.78 4.204-.001 2.954-2.218 4.671-2.22 1.722-6.047 1.72c-1.773 0-3.265-.29-4.484-.876-1.211-.582-2.14-1.383-2.797-2.406q-.97-1.53-1.156-3.516h2.75q.218 1.175.828 2.219c.406.688.992 1.246 1.766 1.672.78.43 1.812.64 3.093.64q2.747 0 4.14-1.171 1.391-1.186 1.392-2.985c0-1.27-.415-2.191-1.235-2.765q-1.235-.873-3.015-1.22l-3.266-.64q-2.813-.575-4.406-1.953-1.594-1.37-1.594-3.89 0-1.7.89-3.079c.594-.914 1.461-1.64 2.61-2.171q1.734-.797 4.219-.797c2.382 0 4.25.543 5.593 1.625q2.016 1.61 2.344 4.312h-2.719q-.298-1.529-1.5-2.594-1.188-1.077-3.718-1.078-1.752 0-2.86.563-1.094.563-1.61 1.437a3.6 3.6 0 0 0-.515 1.844q-.001 1.377.907 2.297.919.926 2.875 1.312ZM550.519 286.469c.914 0 1.828.168 2.734.5a7.4 7.4 0 0 1 2.485 1.547q1.137 1.03 1.828 2.625.686 1.594.687 3.796 0 2.205-.687 3.829-.691 1.612-1.828 2.656a7.7 7.7 0 0 1-2.485 1.547c-.906.332-1.82.5-2.734.5a7.9 7.9 0 0 1-2.734-.5 7.7 7.7 0 0 1-2.47-1.547q-1.126-1.045-1.812-2.656-.688-1.625-.687-3.829c0-1.468.226-2.734.687-3.796q.687-1.594 1.813-2.625a7.5 7.5 0 0 1 2.469-1.547 7.9 7.9 0 0 1 2.734-.5m5.25 8.468q0-2.2-.75-3.593-.75-1.39-1.953-2.063a5.163 5.163 0 0 0-5.094 0q-1.188.675-1.937 2.063c-.5.93-.75 2.125-.75 3.593q0 2.204.75 3.61.749 1.406 1.937 2.094 1.2.688 2.547.687a5.04 5.04 0 0 0 2.547-.687q1.202-.688 1.953-2.094.75-1.406.75-3.61M569.373 286.469h.547q.279.002.64.062v2.281a8 8 0 0 0-.593-.03h-.407q-2.52 0-3.984 1.296-1.47 1.284-1.89 3.453v9.719h-2.547v-16.61h2.546v4.016c.282-1.125.899-2.101 1.86-2.937q1.436-1.249 3.828-1.25M581.515 286.469h.547q.279.002.64.062v2.281a8 8 0 0 0-.593-.03h-.407q-2.52 0-3.984 1.296-1.47 1.284-1.89 3.453v9.719h-2.547v-16.61h2.546v4.016c.282-1.125.899-2.101 1.86-2.937q1.436-1.249 3.828-1.25M597.329 286.64h2.625l-7.156 17.829q-1.19 2.905-2.766 4-1.582 1.108-3.937.828v-2.25c1.187.156 2.125-.024 2.812-.531q1.043-.769 1.594-2.141.246-.703.281-1.078.03-.358-.156-.844l-6.328-15.812h2.656l5.14 13.671ZM602.252 307.89v-.874q.732-.347.984-.985.265-.644.266-1.797v-.984h-1.25v-3.266h3.078v4.063c0 1.02-.152 1.804-.453 2.36q-.457.841-1.14 1.14c-.462.195-.954.312-1.485.344M622.988 301.36q.451 0 .875-.063.435-.06.953-.188v1.953q-1.065.375-2.594.375-.956-.001-1.734-.265a2.38 2.38 0 0 1-1.25-.969q-.47-.703-.47-1.984v-11.547h-2.546v-2.031h2.547v-4.157h2.562v4.157h3.235v2.03h-3.235v11.282q-.001.674.36 1.047.373.361 1.297.36M636.165 286.469q1.653.001 3 .625 1.34.628 2.125 2.093.78 1.47.781 4v10.063h-2.562v-9.969q-.001-2.624-1.157-3.625-1.143-1.014-3.03-1.015-1.566.002-2.657.765c-.719.5-1.277 1.086-1.672 1.75q-.597 1.003-.75 1.813v10.28h-2.547v-22.562h2.547v9.813q.123-.452.563-1.11.435-.668 1.187-1.343a6.8 6.8 0 0 1 1.781-1.125q1.044-.452 2.391-.453M660.093 295.062v.391q0 .188-.031.422h-12.625q.217 2.94 1.688 4.281c.976.899 2.218 1.344 3.718 1.344q1.56.002 2.563-.453 1.013-.451 1.75-1.5h2.36q-.986 2.05-2.657 2.984-1.66.938-4.156.938a8.3 8.3 0 0 1-3.813-.907q-1.77-.903-2.86-2.796c-.73-1.258-1.093-2.86-1.093-4.797q0-2.935 1.125-4.797 1.123-1.874 2.89-2.781a8 8 0 0 1 3.72-.922q2.013 0 3.687.922c1.125.605 2.023 1.542 2.703 2.812q1.031 1.894 1.031 4.86m-12.656-.953h10.188q-.036-2.777-1.407-4.218-1.377-1.438-3.547-1.438-2.08.001-3.546 1.39-1.47 1.395-1.688 4.266M679.836 286.469c.875 0 1.742.168 2.61.5a7 7 0 0 1 2.359 1.547q1.076 1.03 1.718 2.625.657 1.594.657 3.796 0 2.238-.657 3.86-.643 1.612-1.718 2.656c-.711.688-1.5 1.2-2.375 1.531a7.7 7.7 0 0 1-2.657.485q-2.11 0-3.5-1.032-1.394-1.044-2.03-2.515v9.406h-2.548v-22.687h2.547v3.125a5.5 5.5 0 0 1 2.219-2.407q1.482-.89 3.375-.89m-.485 14.859q1.407 0 2.625-.672 1.22-.668 1.97-2.094c.5-.945.75-2.156.75-3.625q0-2.231-.75-3.625-.75-1.389-1.97-2.046a5.45 5.45 0 0 0-2.625-.657q-1.377 0-2.578.657-1.189.656-1.922 2.046-.736 1.394-.734 3.625c0 1.43.242 2.618.734 3.563q.734 1.423 1.922 2.125 1.201.703 2.578.703M703.381 300.375c0 .45.086.777.266.984q.28.301.953.266v1.562c-.281.125-.633.188-1.047.188q-1.188 0-1.844-.531-.656-.546-.656-1.828v-1.188q-.157.328-.61.938-.44.597-1.202 1.218-.75.628-1.875 1.063-1.113.422-2.641.422-2.333.001-3.89-1.235-1.548-1.247-1.548-3.718c0-1.47.489-2.57 1.47-3.313.988-.75 2.452-1.273 4.39-1.578q.984-.154 2.078-.313a23 23 0 0 0 2.063-.375q.966-.234 1.546-.515v-.235c0-1.445-.343-2.437-1.03-2.968q-1.02-.797-3-.797-1.894.001-2.86.64c-.649.43-1.047 1.047-1.203 1.86h-2.422q.248-2.25 1.937-3.344 1.7-1.109 4.578-1.11 3.329.001 4.938 1.438c1.07.961 1.61 2.59 1.61 4.89Zm-2.547-2.422v-3.906q-.702.39-2.203.672t-3.172.578q-2.05.315-2.828 1.078-.783.767-.781 2.078 0 1.377.89 2.25.904.86 2.563.86 1.278 0 2.25-.438a6.2 6.2 0 0 0 1.64-1.047q.668-.62 1.079-1.219.405-.59.562-.906M719.304 286.61h2.547v16.546q0 2.168-.703 3.563-.705 1.387-1.844 2.172a7 7 0 0 1-2.469 1.078c-.898.207-1.765.312-2.609.312q-2.345-.001-4.203-.875-1.845-.862-2.672-2.328l1.656-1.047q.732.919 1.985 1.516 1.248.593 3 .594c1.644 0 2.941-.383 3.89-1.141q1.42-1.125 1.422-3.844v-3.265q-.609 1.439-2.016 2.5-1.406 1.047-3.546 1.046a7.5 7.5 0 0 1-2.641-.484q-1.298-.5-2.375-1.531-1.065-1.045-1.703-2.656c-.43-1.083-.64-2.36-.64-3.829 0-1.468.21-2.734.64-3.796q.638-1.594 1.703-2.625 1.077-1.043 2.375-1.547a7.2 7.2 0 0 1 2.61-.5q1.874 0 3.343.89a5.78 5.78 0 0 1 2.25 2.375Zm-5.125 14.687a5.1 5.1 0 0 0 2.578-.688q1.2-.685 1.938-2.11.733-1.416.734-3.562-.001-2.231-.734-3.625-.737-1.388-1.938-2.062a5.29 5.29 0 0 0-5.156 0c-.813.45-1.465 1.14-1.953 2.078q-.736 1.406-.735 3.61-.002 2.202.735 3.609c.488.937 1.14 1.633 1.953 2.078q1.219.674 2.578.672M739.88 295.062v.391q-.001.188-.032.422h-12.625q.217 2.94 1.688 4.281c.976.899 2.218 1.344 3.718 1.344q1.56.002 2.563-.453 1.013-.451 1.75-1.5h2.36q-.987 2.05-2.657 2.984-1.659.938-4.156.938a8.3 8.3 0 0 1-3.813-.907q-1.77-.903-2.86-2.796c-.73-1.258-1.093-2.86-1.093-4.797q0-2.935 1.125-4.797 1.123-1.874 2.89-2.781a8 8 0 0 1 3.72-.922q2.013 0 3.687.922c1.125.605 2.023 1.542 2.703 2.812q1.031 1.894 1.031 4.86m-12.657-.953h10.188q-.036-2.777-1.407-4.218-1.378-1.438-3.546-1.438-2.081.001-3.547 1.39-1.47 1.395-1.688 4.266M763.388 286.64h2.625l-7.157 17.829q-1.19 2.905-2.765 4-1.582 1.108-3.938.828v-2.25c1.188.156 2.125-.024 2.813-.531q1.042-.769 1.593-2.141.247-.703.282-1.078.03-.358-.157-.844l-6.328-15.812h2.657l5.14 13.671ZM775.467 286.469c.914 0 1.828.168 2.734.5a7.4 7.4 0 0 1 2.484 1.547q1.137 1.03 1.829 2.625.686 1.594.687 3.796 0 2.205-.687 3.829-.691 1.612-1.829 2.656a7.7 7.7 0 0 1-2.484 1.547c-.906.332-1.82.5-2.734.5a7.9 7.9 0 0 1-2.735-.5 7.7 7.7 0 0 1-2.468-1.547q-1.126-1.045-1.813-2.656-.689-1.625-.687-3.829c0-1.468.226-2.734.687-3.796q.687-1.594 1.813-2.625a7.5 7.5 0 0 1 2.468-1.547 7.9 7.9 0 0 1 2.735-.5m5.25 8.468q0-2.2-.75-3.593-.752-1.39-1.953-2.063a5.163 5.163 0 0 0-5.094 0q-1.189.675-1.938 2.063c-.5.93-.75 2.125-.75 3.593q0 2.204.75 3.61t1.938 2.094q1.2.688 2.547.687a5.04 5.04 0 0 0 2.547-.687q1.202-.688 1.953-2.094.75-1.406.75-3.61M797.742 286.64h2.563v16.61h-2.563v-3.86q-.129.44-.562 1.126-.422.69-1.172 1.359c-.5.45-1.102.828-1.797 1.14q-1.031.453-2.375.454c-1.117 0-2.12-.211-3.015-.625q-1.33-.638-2.125-2.125-.784-1.498-.782-4.016v-10.062h2.563v10q0 2.611 1.14 3.64c.77.68 1.786 1.016 3.047 1.016q1.56.001 2.625-.766 1.08-.762 1.688-1.781.608-1.03.765-1.797ZM803.402 288.672h2.421v-7.781h-2.421ZM817.199 286.469h.547q.279.002.64.062v2.281a8 8 0 0 0-.593-.03h-.407q-2.52 0-3.984 1.296-1.47 1.284-1.89 3.453v9.719h-2.548v-16.61h2.547v4.016c.282-1.125.899-2.101 1.86-2.937q1.436-1.249 3.828-1.25M835.45 295.062v.391q-.001.188-.031.422h-12.625q.216 2.94 1.687 4.281c.977.899 2.22 1.344 3.72 1.344q1.558.002 2.562-.453 1.012-.451 1.75-1.5h2.36q-.987 2.05-2.657 2.984-1.66.938-4.156.938a8.3 8.3 0 0 1-3.813-.907q-1.77-.903-2.86-2.796c-.73-1.258-1.093-2.86-1.093-4.797q0-2.935 1.125-4.797c.75-1.25 1.71-2.176 2.89-2.781a8 8 0 0 1 3.72-.922q2.013 0 3.687.922c1.125.605 2.023 1.542 2.703 2.812q1.03 1.894 1.031 4.86m-12.656-.953h10.187q-.035-2.777-1.406-4.218-1.378-1.438-3.547-1.438-2.08.001-3.547 1.39-1.47 1.395-1.687 4.266M524.17 324.64h2.546v22.562h-2.547ZM537.29 330.42q1.374.002 2.735.5a7.4 7.4 0 0 1 2.484 1.548q1.138 1.03 1.828 2.625.687 1.593.688 3.797 0 2.203-.688 3.828-.69 1.611-1.828 2.656a7.7 7.7 0 0 1-2.484 1.547c-.906.332-1.82.5-2.734.5a7.9 7.9 0 0 1-2.735-.5 7.7 7.7 0 0 1-2.469-1.547q-1.126-1.044-1.812-2.656-.69-1.625-.688-3.828-.002-2.205.688-3.797.686-1.594 1.812-2.625a7.5 7.5 0 0 1 2.47-1.547 7.9 7.9 0 0 1 2.734-.5m5.25 8.47c0-1.47-.25-2.665-.75-3.594q-.75-1.389-1.953-2.063a5.163 5.163 0 0 0-5.094 0q-1.187.674-1.937 2.063c-.5.93-.75 2.125-.75 3.594q0 2.202.75 3.609t1.938 2.094q1.2.688 2.547.687a5.04 5.04 0 0 0 2.546-.687q1.203-.687 1.954-2.094t.75-3.61M554.8 330.42q1.374.002 2.735.5a7.4 7.4 0 0 1 2.484 1.548q1.137 1.03 1.829 2.625.686 1.593.687 3.797 0 2.203-.687 3.828-.691 1.611-1.829 2.656a7.7 7.7 0 0 1-2.484 1.547c-.906.332-1.82.5-2.734.5a7.9 7.9 0 0 1-2.735-.5 7.7 7.7 0 0 1-2.468-1.547q-1.126-1.044-1.813-2.656-.688-1.625-.687-3.828c0-1.47.226-2.735.687-3.797q.687-1.594 1.813-2.625a7.5 7.5 0 0 1 2.468-1.547 7.9 7.9 0 0 1 2.735-.5m5.25 8.47c0-1.47-.25-2.665-.75-3.594q-.751-1.389-1.952-2.063a5.163 5.163 0 0 0-5.094 0q-1.189.674-1.938 2.063c-.5.93-.75 2.125-.75 3.594q0 2.202.75 3.609t1.938 2.094q1.2.688 2.547.687a5.04 5.04 0 0 0 2.547-.687q1.201-.687 1.953-2.094.75-1.406.75-3.61M577.467 347.202l-6.75-7.766-2.75 2.844v4.922h-2.547V324.64h2.547v14.64l8.375-8.687h3l-7 7.187 8.031 9.422ZM582.643 324.546h2.547v2.36h-2.547Zm0 6.047h2.547v16.609h-2.547ZM597.342 330.42c1.102 0 2.102.212 3 .626q1.341.628 2.125 2.094.781 1.469.782 4v10.062h-2.563v-9.969q-.001-2.624-1.156-3.625-1.144-1.014-3.031-1.015-1.566.001-2.657.765c-.718.5-1.277 1.086-1.672 1.75q-.597 1.003-.75 1.813v10.281h-2.546v-16.61h2.546v3.86q.123-.452.563-1.11.435-.668 1.187-1.343a6.8 6.8 0 0 1 1.782-1.125q1.043-.452 2.39-.453M619.036 330.561h2.547v16.547q0 2.168-.703 3.563-.705 1.387-1.844 2.172a7 7 0 0 1-2.469 1.078q-1.345.311-2.609.312-2.345-.001-4.203-.875-1.845-.862-2.672-2.328l1.656-1.047q.732.92 1.985 1.516 1.248.592 3 .594 2.466-.002 3.89-1.141 1.42-1.125 1.422-3.844v-3.265q-.61 1.44-2.015 2.5-1.407 1.048-3.547 1.047a7.5 7.5 0 0 1-2.64-.485c-.868-.332-1.657-.844-2.376-1.531q-1.065-1.044-1.703-2.656c-.43-1.082-.64-2.36-.64-3.828 0-1.47.21-2.735.64-3.797q.638-1.594 1.703-2.625c.719-.696 1.508-1.211 2.375-1.547a7.2 7.2 0 0 1 2.61-.5q1.874 0 3.343.89a5.78 5.78 0 0 1 2.25 2.375Zm-5.125 14.688a5.1 5.1 0 0 0 2.578-.688q1.2-.686 1.938-2.109.733-1.418.734-3.562-.001-2.232-.734-3.625-.737-1.39-1.938-2.063a5.29 5.29 0 0 0-5.156 0q-1.22.673-1.953 2.078-.736 1.406-.734 3.61c0 1.468.242 2.671.734 3.609.488.937 1.14 1.633 1.953 2.078q1.22.673 2.578.672M639.96 326.374q-1.19 0-1.766.562c-.375.368-.562 1.016-.562 1.954v1.703h4.046v2.03h-4.046v14.579h-2.563v-14.578h-2.297v-2.031h2.297v-1.735q0-1.98.656-2.937.656-.95 1.657-1.266a6.7 6.7 0 0 1 2.062-.328q.639 0 1.313.094c.445.062.82.148 1.125.25v1.922q-.833-.219-1.922-.22M651.266 330.42q1.373.002 2.735.5a7.4 7.4 0 0 1 2.484 1.548q1.137 1.03 1.828 2.625.687 1.593.688 3.797 0 2.203-.688 3.828-.69 1.611-1.828 2.656A7.7 7.7 0 0 1 654 346.92q-1.362.499-2.735.5a7.9 7.9 0 0 1-2.734-.5 7.7 7.7 0 0 1-2.469-1.547q-1.126-1.044-1.812-2.656-.69-1.625-.688-3.828-.002-2.205.688-3.797.686-1.594 1.812-2.625a7.5 7.5 0 0 1 2.469-1.547 7.9 7.9 0 0 1 2.734-.5m5.25 8.47c0-1.47-.25-2.665-.75-3.594q-.75-1.389-1.953-2.063a5.163 5.163 0 0 0-5.094 0q-1.188.674-1.937 2.063c-.5.93-.75 2.125-.75 3.594q0 2.202.75 3.609.749 1.407 1.937 2.094 1.2.688 2.547.687a5.04 5.04 0 0 0 2.547-.687q1.201-.687 1.953-2.094.75-1.406.75-3.61M670.12 330.42h.547c.187 0 .398.024.64.063v2.282a8 8 0 0 0-.593-.032h-.406q-2.52.001-3.985 1.297-1.47 1.285-1.89 3.453v9.719h-2.547v-16.61h2.547v4.016c.28-1.125.898-2.101 1.859-2.937q1.436-1.249 3.828-1.25M689.298 330.42c1.25 0 2.367.298 3.36.891 1 .586 1.741 1.375 2.233 2.375v-9.046h2.547v22.562h-2.547v-3.36c-.406.962-1.078 1.798-2.015 2.516q-1.407 1.065-3.516 1.063a7.7 7.7 0 0 1-2.656-.485 7.2 7.2 0 0 1-2.406-1.53q-1.08-1.045-1.719-2.657c-.43-1.082-.64-2.367-.64-3.86 0-1.468.21-2.734.64-3.796q.638-1.594 1.703-2.625a7.1 7.1 0 0 1 2.39-1.547q1.313-.499 2.626-.5m.437 14.86q1.371 0 2.578-.703 1.202-.702 1.953-2.125.75-1.418.75-3.562 0-2.232-.75-3.625-.75-1.39-1.953-2.047a5.3 5.3 0 0 0-2.578-.657 5.36 5.36 0 0 0-2.578.657q-1.219.656-1.969 2.062t-.75 3.61.75 3.609 1.97 2.094 2.577.687M708.046 330.42q1.373.002 2.735.5a7.4 7.4 0 0 1 2.484 1.548q1.137 1.03 1.828 2.625.687 1.593.688 3.797 0 2.203-.688 3.828-.69 1.611-1.828 2.656a7.7 7.7 0 0 1-2.484 1.547q-1.362.499-2.735.5a7.9 7.9 0 0 1-2.734-.5 7.7 7.7 0 0 1-2.469-1.547q-1.126-1.044-1.812-2.656-.69-1.625-.688-3.828-.002-2.205.688-3.797.686-1.594 1.812-2.625a7.5 7.5 0 0 1 2.469-1.547 7.9 7.9 0 0 1 2.734-.5m5.25 8.47c0-1.47-.25-2.665-.75-3.594q-.75-1.389-1.953-2.063a5.163 5.163 0 0 0-5.094 0q-1.188.674-1.937 2.063c-.5.93-.75 2.125-.75 3.594q0 2.202.75 3.609.749 1.407 1.937 2.094 1.2.688 2.547.687a5.04 5.04 0 0 0 2.547-.687q1.202-.687 1.953-2.094.75-1.406.75-3.61M733.01 339.015v.39q-.001.188-.032.422h-12.625q.217 2.94 1.688 4.281c.976.899 2.219 1.344 3.719 1.344 1.039 0 1.894-.148 2.562-.453q1.013-.45 1.75-1.5h2.36q-.986 2.05-2.657 2.984-1.659.938-4.156.938a8.3 8.3 0 0 1-3.813-.906q-1.77-.904-2.859-2.797c-.73-1.258-1.094-2.86-1.094-4.797q0-2.935 1.125-4.797 1.123-1.874 2.89-2.781a8 8 0 0 1 3.72-.922q2.013 0 3.687.922 1.686.908 2.703 2.812 1.032 1.894 1.032 4.86m-12.657-.954h10.188q-.035-2.776-1.406-4.218-1.378-1.437-3.547-1.438-2.081.001-3.547 1.39-1.47 1.395-1.688 4.266M745.763 334.843q-.422-1.312-1.484-1.875-1.05-.563-2.61-.563-1.797 0-2.78.75c-.65.5-.97 1.125-.97 1.875q0 .985.672 1.594.67.61 2.22.953l2.671.64q1.53.364 2.656.798c.75.28 1.32.699 1.72 1.25q.608.829.608 2.375 0 1.688-.937 2.75-.939 1.048-2.469 1.546c-1.012.32-2.101.485-3.265.485q-2.753 0-4.657-1.219c-1.261-.82-2-2.11-2.218-3.86h2.406c.226 1.157.765 1.962 1.61 2.407q1.263.656 2.89.656 1.686.002 2.89-.672 1.203-.685 1.204-2.125c0-.832-.258-1.414-.766-1.75q-.766-.497-2.172-.812l-2.906-.672q-2.315-.545-3.453-1.594-1.125-1.06-1.125-2.812c0-1.407.554-2.516 1.672-3.328q1.688-1.22 4.5-1.22c1.718 0 3.132.376 4.25 1.126q1.687 1.126 2.203 3.297ZM759.694 330.42c1.102 0 2.102.212 3 .626q1.341.628 2.125 2.094.781 1.469.782 4v10.062h-2.563v-9.969q-.001-2.624-1.156-3.625-1.144-1.014-3.031-1.015-1.565.001-2.657.765c-.718.5-1.277 1.086-1.671 1.75q-.599 1.003-.75 1.813v10.281h-2.547v-16.61h2.547v3.86q.124-.452.562-1.11.436-.668 1.188-1.343a6.8 6.8 0 0 1 1.78-1.125q1.044-.452 2.391-.453M768.7 332.624h2.423v-7.781H768.7ZM779.748 345.311q.452 0 .875-.062.437-.06.953-.188v1.954q-1.065.375-2.594.375-.954-.001-1.734-.266a2.38 2.38 0 0 1-1.25-.969q-.469-.703-.469-1.984v-11.547h-2.547v-2.031h2.547v-4.157h2.563v4.157h3.234v2.03h-3.234v11.282c0 .45.117.797.36 1.047.25.242.679.36 1.296.36M807.523 339.015v.39q0 .188-.03.422h-12.626q.217 2.94 1.688 4.281c.976.899 2.218 1.344 3.718 1.344 1.04 0 1.895-.148 2.563-.453q1.013-.45 1.75-1.5h2.36q-.986 2.05-2.657 2.984-1.659.938-4.156.938a8.3 8.3 0 0 1-3.813-.906q-1.77-.904-2.859-2.797c-.73-1.258-1.094-2.86-1.094-4.797q0-2.935 1.125-4.797 1.123-1.874 2.89-2.781a8 8 0 0 1 3.72-.922q2.013 0 3.687.922 1.686.908 2.703 2.812 1.032 1.894 1.031 4.86m-12.656-.954h10.188q-.035-2.776-1.407-4.218-1.377-1.437-3.546-1.438-2.081.001-3.547 1.39-1.47 1.395-1.688 4.266M824.45 347.202h-2.876l-4.625-6.672-4.672 6.672h-2.843l6.109-8.562-5.781-8.047h2.843l4.344 6.125 4.313-6.125h2.843l-5.75 8.047ZM827.177 324.546h2.547v2.36h-2.547Zm0 6.047h2.547v16.609h-2.547ZM843.283 334.843q-.423-1.312-1.484-1.875-1.05-.563-2.61-.563-1.797 0-2.78.75c-.65.5-.97 1.125-.97 1.875q0 .985.672 1.594.67.61 2.22.953l2.671.64q1.53.364 2.656.798c.75.28 1.32.699 1.719 1.25q.61.829.61 2.375 0 1.688-.938 2.75-.939 1.048-2.469 1.546c-1.012.32-2.101.485-3.265.485q-2.753 0-4.657-1.219c-1.261-.82-2-2.11-2.218-3.86h2.406c.226 1.157.765 1.962 1.61 2.407q1.263.656 2.89.656 1.686.002 2.89-.672 1.203-.685 1.204-2.125-.002-1.247-.766-1.75-.766-.497-2.172-.812l-2.906-.672q-2.316-.545-3.453-1.594-1.125-1.06-1.125-2.812c0-1.407.554-2.516 1.672-3.328q1.688-1.22 4.5-1.22c1.718 0 3.132.376 4.25 1.126q1.687 1.126 2.203 3.297ZM854.23 345.311q.452 0 .875-.062.437-.06.953-.188v1.954q-1.065.375-2.594.375-.954-.001-1.734-.266a2.38 2.38 0 0 1-1.25-.969q-.47-.703-.469-1.984v-11.547h-2.547v-2.031h2.547v-4.157h2.563v4.157h3.234v2.03h-3.234v11.282c0 .45.117.797.36 1.047.25.242.679.36 1.296.36M587.534 238.318h-9.172V257.1h-16.719v-18.78H526.94v-13.407l34.703-48h16.72v48h9.171Zm-25.89-13.406v-27.828l-20.157 27.828Zm0 0"/><path d="M614.215 175.88q5.955.001 11.672 2.188c3.82 1.45 7.297 3.778 10.422 6.985q4.7 4.815 7.516 12.718 2.812 7.892 2.812 19.235 0 11.455-2.812 19.312c-1.875 5.23-4.383 9.45-7.516 12.656q-4.689 4.8-10.422 6.985c-3.812 1.445-7.703 2.172-11.672 2.172-3.898 0-7.757-.727-11.578-2.172q-5.719-2.185-10.484-6.985-4.751-4.81-7.563-12.656c-1.867-5.238-2.796-11.676-2.796-19.312q-.001-11.343 2.796-19.235 2.812-7.904 7.563-12.718 4.765-4.811 10.484-6.985 5.73-2.186 11.578-2.187m15.688 41.126c0-4.657-.461-9.004-1.375-13.047q-1.376-6.076-4.75-9.906-3.375-3.844-9.563-3.844-6.081 0-9.515 3.844c-2.281 2.554-3.883 5.855-4.797 9.906q-1.376 6.063-1.375 13.047-.001 6.983 1.375 13.125c.914 4.086 2.516 7.386 4.797 9.906q3.433 3.783 9.515 3.781 6.188.002 9.563-3.781 3.374-3.779 4.75-9.906c.914-4.094 1.375-8.47 1.375-13.125m0 0"/><path d="M701.5 238.318h-9.173V257.1H675.61v-18.78h-34.704v-13.407l34.704-48h16.718v48h9.172Zm-25.891-13.406v-27.828l-20.157 27.828Zm0 0"/><path fill="#0e133f" d="M87.602 80.9q4.436 0 7.718 1.876t5.079 5.39q1.811 3.516 1.812 8.532 0 4.939-1.812 8.484-1.799 3.534-5.079 5.422-3.281 1.891-7.718 1.89-4.409.001-7.703-1.89-3.299-1.888-5.125-5.422-1.83-3.545-1.829-8.484 0-5.016 1.829-8.532 1.826-3.515 5.125-5.39 3.294-1.875 7.703-1.875m0 25.798c2.437 0 4.304-.895 5.61-2.688q1.951-2.684 1.952-7.312 0-4.653-1.953-7.313c-1.305-1.781-3.172-2.672-5.61-2.672-2.437 0-4.32.89-5.64 2.672q-1.968 2.66-1.969 7.313 0 4.628 1.97 7.312 1.981 2.689 5.64 2.688m0 0"/><path fill="#0e133f" d="M113.034 89.01c1.195 0 2.453.215 3.765.64q1.98.628 3.703 2.016c1.145.93 2.078 2.14 2.797 3.64q1.078 2.24 1.078 5.438 0 3.175-1.078 5.407-1.079 2.22-2.797 3.61a11.6 11.6 0 0 1-3.703 2.015c-1.312.425-2.57.64-3.765.64q-1.817-.001-3.797-.64a11.6 11.6 0 0 1-3.688-2.016q-1.72-1.389-2.797-3.61-1.078-2.23-1.078-5.406 0-3.199 1.078-5.437c.72-1.5 1.649-2.711 2.797-3.64q1.718-1.389 3.688-2.016 1.98-.64 3.797-.64m5.187 11.734q-.001-2.373-.734-3.796-.721-1.437-1.907-2.094a5.2 5.2 0 0 0-2.546-.656q-1.378 0-2.563.656-1.19.657-1.922 2.094-.72 1.423-.719 3.796-.002 3.347 1.579 4.907 1.593 1.563 3.625 1.562 2.061 0 3.625-1.562 1.56-1.56 1.562-4.907M137.171 89.01q1.5.001 3.235.64 1.748.628 3.312 2.016 1.56 1.395 2.547 3.61.985 2.22.985 5.39 0 3.204-.985 5.453c-.656 1.5-1.508 2.715-2.547 3.641q-1.564 1.377-3.343 2.016-1.781.639-3.329.64-2.203-.002-3.546-.718c-.899-.489-1.547-1-1.954-1.532q-.609-.794-.609-1.015v11.312H124.5V89.23h6.437v2.86q.388-.67 1.25-1.376c.57-.469 1.281-.867 2.125-1.203q1.278-.499 2.86-.5m-1.437 18.203q1.404.002 2.61-.672c.812-.457 1.46-1.172 1.952-2.14.5-.97.75-2.211.75-3.735q0-2.295-.75-3.718c-.492-.957-1.14-1.657-1.953-2.094a5.4 5.4 0 0 0-2.61-.656q-2.127 0-3.593 1.593-1.47 1.582-1.469 4.875 0 3.347 1.47 4.953 1.465 1.594 3.593 1.594m0 0"/><path fill="#0e133f" d="M160.094 96.307q-.393-1.407-1.36-1.969-.971-.576-2.547-.578-1.502.002-2.453.578c-.625.375-.937.93-.937 1.656 0 1.094.804 1.813 2.422 2.157l4.093.922q2.06.455 3.641 1 1.593.549 2.484 1.718c.602.774.907 1.95.907 3.532 0 1.617-.446 2.945-1.329 3.984q-1.314 1.564-3.625 2.344c-1.542.507-3.277.765-5.203.765q-4.405.002-7.03-1.906-2.614-1.92-3.095-5.703h5.891q.703 2.86 4.266 2.86 1.933.002 2.812-.688.89-.685.89-1.735-.002-.888-.577-1.343c-.375-.313-.993-.555-1.844-.735l-3.688-.78c-2.586-.595-4.398-1.446-5.437-2.563q-1.564-1.67-1.563-4 0-3.2 2.453-5 2.469-1.812 6.875-1.813c3.051 0 5.336.68 6.86 2.031 1.531 1.344 2.484 3.102 2.86 5.266Zm0 0"/></svg>