<?xml version="1.0" encoding="UTF-8"?>
<svg version="1.1" xmlns="http://www.w3.org/2000/svg" width="512" height="512">
<path d="M0 0 C26.42106834 5.30943859 51.66210009 16.5522189 67.24511719 39.58642578 C71.59565132 46.65486411 75.36571365 54.0771129 79.04589844 61.51220703 C79.50738281 60.83416016 79.96886719 60.15611328 80.44433594 59.45751953 C95.56155513 37.88710006 116.50256274 25.83806986 142.07568359 20.85546875 C161.04820799 17.5499707 161.04820799 17.5499707 167.17871094 20.55908203 C169.2960172 22.29793258 170.81896173 24.05833362 172.04589844 26.51220703 C174.3530896 51.24832216 164.38794581 76.39346592 149.45214844 95.66064453 C135.50827853 112.18503582 115.06964044 121.73015821 94.04589844 125.51220703 C91.73589844 125.51220703 89.42589844 125.51220703 87.04589844 125.51220703 C87.37589844 157.19220703 87.70589844 188.87220703 88.04589844 221.51220703 C91.34589844 216.89220703 94.64589844 212.27220703 98.04589844 207.51220703 C99.67527344 205.59408203 101.30464844 203.67595703 102.98339844 201.69970703 C107.13262121 196.24478479 108.14325109 191.62013286 109.02514648 185.0144043 C110.66702524 172.97530479 115.92537259 162.30688592 123.04589844 152.51220703 C123.54347656 151.80708984 124.04105469 151.10197266 124.55371094 150.37548828 C134.99454553 137.02276264 154.74339699 128.748718 171.04589844 126.51220703 C185.1469136 125.26918873 185.1469136 125.26918873 189.95214844 128.41455078 C193.94388646 132.41373608 193.35839844 136.33987058 193.35839844 141.79736328 C193.0123306 159.69850868 185.09894748 178.3042491 173.04589844 191.51220703 C161.32520656 202.12233773 144.07391959 211.84099015 127.73339844 211.51220703 C121.20979055 213.28132104 117.83714771 219.22380411 114.04589844 224.51220703 C113.63049805 225.08310059 113.21509766 225.65399414 112.78710938 226.2421875 C99.42695988 244.79911133 88.53831801 265.16182806 87.48339844 288.32470703 C87.33902344 291.35658203 87.19464844 294.38845703 87.04589844 297.51220703 C79.78589844 297.51220703 72.52589844 297.51220703 65.04589844 297.51220703 C65.04589844 276.06220703 65.04589844 254.61220703 65.04589844 232.51220703 C62.40589844 232.51220703 59.76589844 232.51220703 57.04589844 232.51220703 C47.65907351 230.70937263 38.68403004 227.58002524 30.04589844 223.51220703 C29.15644531 223.09455078 28.26699219 222.67689453 27.35058594 222.24658203 C13.46565547 215.20291468 3.06992918 205.78935488 -4.95410156 192.51220703 C-5.3226123 191.90328613 -5.69112305 191.29436523 -6.07080078 190.66699219 C-15.78182203 174.27181758 -22.65828657 153.85568632 -20.95410156 134.51220703 C-19.64160156 131.63720703 -19.64160156 131.63720703 -17.95410156 129.51220703 C-17.39722656 128.71556641 -17.39722656 128.71556641 -16.82910156 127.90283203 C-13.89435318 125.72622698 -10.77689481 126.0692205 -7.26660156 126.13720703 C-6.51056641 126.1473584 -5.75453125 126.15750977 -4.97558594 126.16796875 C20.80135382 126.86014719 44.85692336 137.32323196 63.04589844 155.51220703 C63.37589844 145.94220703 63.70589844 136.37220703 64.04589844 126.51220703 C61.07589844 126.51220703 58.10589844 126.51220703 55.04589844 126.51220703 C31.91243349 124.24206257 8.45746283 116.28778551 -8.95410156 100.51220703 C-9.78425781 99.77486328 -10.61441406 99.03751953 -11.46972656 98.27783203 C-31.37381752 79.59485095 -40.80695157 50.70954577 -42.0769043 23.921875 C-42.15764895 21.20109924 -42.18857014 18.48408811 -42.20410156 15.76220703 C-42.22472656 14.84310547 -42.24535156 13.92400391 -42.26660156 12.97705078 C-42.29526019 8.02627313 -42.28891598 4.47035125 -38.95410156 0.51220703 C-29.61136418 -5.71628456 -10.53694395 -1.88125637 0 0 Z M-19.95410156 20.51220703 C-17.2340046 44.70675373 -11.75408825 68.06261594 7.50292969 84.62548828 C23.50649121 96.98206127 43.74006541 104.81452713 64.04589844 104.51220703 C63.64482726 82.16160399 56.49135353 60.10684632 41.21777344 43.52783203 C26.63075756 29.70187785 3.84978681 20.38975905 -16.15722656 20.49267578 C-18.03667969 20.50234375 -18.03667969 20.50234375 -19.95410156 20.51220703 Z M144.04589844 162.51220703 C137.8301966 169.48922805 132.04589844 177.89926296 132.04589844 187.51220703 C141.4985678 187.08254024 150.51794508 181.89051362 157.30371094 175.48486328 C162.90555428 169.14196891 169.04589844 159.18394285 169.04589844 150.51220703 C159.59128838 150.51220703 150.81865871 156.38593751 144.04589844 162.51220703 Z " fill="#000000" transform="translate(62.9541015625,193.48779296875)"/>
<path d="M0 0 C1.00154114 -0.01606293 2.00308228 -0.03212585 3.03497314 -0.04867554 C7.62242999 -0.09311363 12.20974149 -0.13419821 16.79736328 -0.15722656 C19.2164065 -0.17377979 21.63540094 -0.20106111 24.05419922 -0.23925781 C27.54127389 -0.29404857 31.02720115 -0.31590588 34.51464844 -0.33056641 C35.59296936 -0.35323578 36.67129028 -0.37590515 37.7822876 -0.39926147 C46.16818013 -0.37569484 46.16818013 -0.37569484 49.85351562 2.60058594 C52.98090448 6.07553517 53.31235319 7.58328495 53.33369446 12.13848877 C53.34442741 13.70726021 53.34442741 13.70726021 53.3553772 15.307724 C53.3580661 16.45994949 53.360755 17.61217499 53.36352539 18.79931641 C53.37009659 20.00916702 53.37666779 21.21901764 53.38343811 22.4655304 C53.40320835 26.48402144 53.41484221 30.50247253 53.42480469 34.52099609 C53.42885222 35.90457937 53.43296914 37.28816244 53.43715477 38.6717453 C53.45620924 45.17295154 53.4704388 51.67414642 53.47876674 58.17537522 C53.48853565 65.6775756 53.5148447 73.17948064 53.55526763 80.68157697 C53.58544377 86.48124098 53.60023708 92.28082042 53.60354775 98.0805614 C53.60589691 101.54388447 53.61483883 105.00689214 53.64000893 108.47013092 C53.66765398 112.33646556 53.66345389 116.20241294 53.65649414 120.06884766 C53.67570923 121.78504051 53.67570923 121.78504051 53.6953125 123.53590393 C53.65480503 129.70276186 53.41246372 133.54522604 49.18652344 138.19287109 C46.72001717 139.42612423 45.04025464 139.34637188 42.28125 139.38574219 C40.74890717 139.40983658 40.74890717 139.40983658 39.18560791 139.43441772 C34.50655746 139.47884851 29.8276496 139.51993991 25.1484375 139.54296875 C22.68089361 139.55952291 20.21339756 139.58680543 17.74609375 139.625 C14.18952538 139.6797824 10.634082 139.70164685 7.07714844 139.71630859 C5.97695374 139.73897797 4.87675903 139.76164734 3.7432251 139.78500366 C-4.81292669 139.76142404 -4.81292669 139.76142404 -8.55664062 136.91015625 C-10.81347656 134.19287109 -10.81347656 134.19287109 -10.81347656 130.19287109 C-11.47347656 130.52287109 -12.13347656 130.85287109 -12.81347656 131.19287109 C-13.8148616 131.23424194 -14.81624664 131.27561279 -15.84797668 131.3182373 C-26.37870953 131.89566875 -31.76483708 135.40933652 -38.78870201 143.09925842 C-40.43246315 144.8981129 -42.11512925 146.65172378 -43.8117218 148.40075684 C-47.41318844 152.12921287 -50.95844284 155.90851836 -54.50097656 159.69287109 C-59.15759447 164.65378158 -63.83812035 169.58988281 -68.57519531 174.47412109 C-69.14412128 175.06136585 -69.71304726 175.64861061 -70.29921341 176.25365067 C-79.11815544 185.2747524 -87.74298427 191.8129834 -99.67460632 196.3263855 C-103.45587698 197.85822997 -106.99104814 199.85747056 -110.56347656 201.81787109 C-118.77724433 206.16563144 -127.04246243 210.41000464 -135.33825684 214.59881592 C-136.76703093 215.32158996 -138.19439089 216.04716703 -139.62023926 216.7756958 C-141.64293937 217.80820605 -143.67080275 218.8298405 -145.70019531 219.84912109 C-146.59773781 220.31099319 -146.59773781 220.31099319 -147.51341248 220.78219604 C-157.03034947 225.51697 -166.26534254 226.56847991 -176.36035156 223.22412109 C-184.03461105 219.99799927 -188.99023889 214.49842079 -192.81347656 207.19287109 C-195.86607774 199.45682702 -196.10827835 190.90284613 -193.37597656 183.00537109 C-190.9381979 177.75153777 -187.33324544 173.8498145 -183.31201172 169.74023438 C-181.562113 167.93331712 -179.8493979 166.09460095 -178.13769531 164.25146484 C-172.62249079 158.31894887 -167.08294779 152.43590151 -161.3359375 146.72680664 C-158.93715933 144.30994916 -156.72849226 141.75465427 -154.52441406 139.16162109 C-153.40515101 137.87370197 -152.24392606 136.62081155 -151.04003906 135.41162109 C-148.08167493 132.35603373 -146.90890191 130.64063618 -146.00097656 126.38037109 C-146.40702675 120.78346305 -150.27098417 116.30440639 -153.81347656 112.19287109 C-160.11069438 109.04426219 -169.58179053 111.55864408 -176.23925781 112.69677734 C-177.18987595 112.85774399 -178.14049408 113.01871063 -179.11991882 113.18455505 C-181.11148617 113.52684306 -183.10219519 113.87416046 -185.09204102 114.22631836 C-188.13130725 114.75630065 -191.17556551 115.2450284 -194.22167969 115.73388672 C-196.16548188 116.07315622 -198.1088596 116.41486872 -200.05175781 116.75927734 C-201.40966179 116.9675692 -201.40966179 116.9675692 -202.79499817 117.18006897 C-207.27149473 118.02251948 -210.00815238 118.78352908 -212.76904297 122.54052734 C-213.48391418 123.73867202 -214.16908173 124.95539511 -214.81347656 126.19287109 C-215.27117432 127.02616943 -215.72887207 127.85946777 -216.20043945 128.71801758 C-216.73785767 129.87926147 -216.73785767 129.87926147 -217.28613281 131.06396484 C-217.70459473 131.95639893 -218.12305664 132.84883301 -218.55419922 133.76831055 C-218.99038574 134.71279053 -219.42657227 135.65727051 -219.87597656 136.63037109 C-220.8421499 138.67524464 -221.80964296 140.71949504 -222.77832031 142.76318359 C-224.30194968 145.99009931 -225.82497364 149.21728726 -227.34521484 152.44580078 C-241.26126552 181.81871844 -241.26126552 181.81871844 -254.81347656 187.19287109 C-262.98812148 189.91775273 -273.39479515 188.97725888 -281.24707031 185.64208984 C-290.3529045 180.50013477 -296.4450579 173.21744748 -299.40722656 163.18115234 C-300.98733971 155.44771398 -299.59735771 148.71556813 -297.28222656 141.32177734 C-297.01699692 140.45802994 -296.75176727 139.59428253 -296.47850037 138.70436096 C-295.60081566 135.86374594 -294.70938895 133.02778773 -293.81347656 130.19287109 C-293.35245041 128.7317691 -293.35245041 128.7317691 -292.8821106 127.2411499 C-290.92850688 121.0751608 -288.93351051 114.92371413 -286.90942383 108.78051758 C-286.21585725 106.66639296 -285.52876094 104.55013556 -284.84790039 102.43188477 C-279.00562394 84.26472967 -273.72453908 69.30518867 -255.92565918 59.94277954 C-252.12379304 58.01065162 -248.28300262 56.16320054 -244.43847656 54.31787109 C-241.98837274 53.12179641 -239.54076802 51.92070453 -237.09313965 50.71957397 C-235.49510204 49.93597923 -233.89623408 49.15407542 -232.29650879 48.37393188 C-226.66223769 45.62473946 -221.08955569 42.77914025 -215.56347656 39.81787109 C-214.14587173 39.06848435 -212.72790308 38.31978543 -211.30957031 37.57177734 C-208.86005118 36.27871227 -206.41469941 34.97884126 -203.97412109 33.66894531 C-200.86870799 32.01005175 -197.74883388 30.38114836 -194.62597656 28.75537109 C-193.68786133 28.24635254 -192.74974609 27.73733398 -191.78320312 27.21289062 C-184.55928452 23.4960559 -177.46985094 21.80213053 -169.49887085 20.60073853 C-166.40752257 20.13121333 -163.32265469 19.62625008 -160.23657227 19.12329102 C-152.02630532 17.81099481 -143.80144857 16.62859606 -135.56347656 15.50537109 C-134.81433361 15.40264515 -134.06519066 15.2999192 -133.29334641 15.19408035 C-92.90001821 9.70189213 -52.48727888 10.28430844 -11.81347656 11.19287109 C-11.6884375 10.42458984 -11.56339844 9.65630859 -11.43457031 8.86474609 C-10.65048506 5.49170008 -9.1329801 3.72323859 -6.81347656 1.19287109 C-4.36946349 -0.02913544 -2.7327313 0.03977952 0 0 Z M-245.81347656 80.19287109 C-246.62985596 80.68742798 -247.44623535 81.18198486 -248.28735352 81.69152832 C-256.87348402 87.4071241 -259.42577628 97.27012886 -262.47753906 106.66162109 C-262.95566544 108.10305481 -262.95566544 108.10305481 -263.44345093 109.5736084 C-264.44889735 112.61107113 -265.44369042 115.65190274 -266.43847656 118.69287109 C-267.11229091 120.73085144 -267.78676496 122.76861379 -268.46191406 124.80615234 C-272.0506709 135.6692232 -272.0506709 135.6692232 -275.49853516 146.57763672 C-275.8625795 147.75308044 -275.8625795 147.75308044 -276.23397827 148.95227051 C-277.47989042 153.76952628 -277.72748307 157.63567483 -275.12597656 162.06787109 C-271.72925649 165.18918143 -269.4432683 166.22682509 -264.81347656 166.13037109 C-260.16660902 164.67822499 -257.85082687 161.97643582 -255.46273804 157.8704834 C-253.96809836 154.96479768 -252.54454139 152.03268634 -251.13769531 149.08349609 C-250.05129181 146.86205142 -248.96469723 144.64070019 -247.87792969 142.41943359 C-246.18840845 138.93502577 -244.50364204 135.44840611 -242.82348633 131.95947266 C-241.19049271 128.57802364 -239.53992433 125.20557853 -237.88769531 121.83349609 C-237.39782639 120.80194397 -236.90795746 119.77039185 -236.40324402 118.70758057 C-231.97547263 109.6994911 -226.90833432 101.57869304 -217.17102051 97.89877319 C-213.00720708 96.65203306 -208.83095535 95.80933887 -204.54785156 95.08740234 C-203.59259583 94.91786545 -202.63734009 94.74832855 -201.65313721 94.57365417 C-199.64391453 94.21957791 -197.6336927 93.87112918 -195.62255859 93.52807617 C-192.58337677 93.00877144 -189.54802764 92.47050261 -186.51269531 91.92919922 C-153.1189464 86.05468227 -153.1189464 86.05468227 -140.16503906 94.37646484 C-131.95760491 100.71609422 -125.33442492 111.93491941 -123.81347656 122.19287109 C-123.10891897 132.58509558 -126.27078644 141.13159563 -132.81347656 149.19287109 C-135.01498266 151.53472822 -137.28001166 153.78334157 -139.59472656 156.01318359 C-141.59686356 157.9800717 -143.43277446 159.99484127 -145.25097656 162.13037109 C-147.96966904 165.3032303 -150.84099331 168.25625491 -153.81347656 171.19287109 C-157.41897901 174.76019121 -160.86854584 178.38155112 -164.13769531 182.25927734 C-165.32029105 183.62381089 -166.55866567 184.94094295 -167.83300781 186.22021484 C-171.95813339 190.3721465 -171.95813339 190.3721465 -173.00097656 196.00537109 C-172.03065151 199.15344194 -172.03065151 199.15344194 -170.18847656 201.13037109 C-166.03944756 202.98651565 -162.13419201 202.69237173 -157.92797852 201.1015625 C-156.97882568 200.58770996 -156.02967285 200.07385742 -155.05175781 199.54443359 C-153.95371826 198.9637915 -152.85567871 198.38314941 -151.72436523 197.78491211 C-150.52384418 197.13117124 -149.32441952 196.4754138 -148.12597656 195.81787109 C-145.48721944 194.37326645 -142.84476673 192.93599098 -140.19628906 191.50927734 C-139.50768295 191.13772018 -138.81907684 190.76616302 -138.10960388 190.38334656 C-133.4665833 187.92943688 -128.79216647 185.96679186 -123.86816406 184.15771484 C-96.58398223 173.61917183 -78.25319196 153.08919951 -58.42553711 132.37084961 C-57.82670306 131.74643195 -57.22786901 131.12201429 -56.61088848 130.47867489 C-53.75904922 127.50193682 -50.92177535 124.51384558 -48.11192322 121.49742126 C-47.09611471 120.42308032 -46.08013799 119.34889839 -45.06396484 118.27490234 C-44.1910379 117.33880127 -43.31811096 116.4027002 -42.41873169 115.43823242 C-34.55825161 108.6636107 -20.67182862 109.40082819 -11.81347656 108.19287109 C-11.81347656 83.44287109 -11.81347656 58.69287109 -11.81347656 33.19287109 C-40.39958456 32.61276664 -40.39958456 32.61276664 -68.97753906 32.67333984 C-70.36674498 32.69502763 -70.36674498 32.69502763 -71.78401566 32.71715355 C-137.45358519 33.82451834 -189.35769007 45.31721196 -245.81347656 80.19287109 Z " fill="#000000" transform="translate(437.8134765625,20.80712890625)"/>
<path d="M0 0 C9.51072765 4.8584922 17.64614954 11.18917704 25.2421875 18.65625 C26.27279297 19.66751953 26.27279297 19.66751953 27.32421875 20.69921875 C35.65280847 29.45491564 41.74132322 40.50193417 46.2421875 51.65625 C46.89574219 50.69525391 46.89574219 50.69525391 47.5625 49.71484375 C49.42685773 47.00708609 51.32616522 44.32766505 53.2421875 41.65625 C53.67402344 41.03878906 54.10585938 40.42132813 54.55078125 39.78515625 C66.99355245 23.62118245 92.5231687 12.96398366 112.14453125 9.9453125 C116.30338707 9.55722255 120.44196315 9.32775606 124.6171875 9.21875 C125.777948 9.16690552 125.777948 9.16690552 126.9621582 9.11401367 C131.23818311 9.08280181 132.76491768 9.27105192 136.21875 12.05859375 C141.1847632 18.43388096 139.69111166 26.87083021 138.78125 34.54296875 C134.80383916 58.05648576 124.50144724 82.0220155 105.03515625 96.75 C93.53058564 104.60207057 81.37516713 110.49818596 67.8671875 113.96875 C67.20090332 114.14051758 66.53461914 114.31228516 65.84814453 114.48925781 C61.88581614 115.44372364 58.30151653 115.72026937 54.2421875 115.65625 C54.25106995 116.75792511 54.25995239 117.85960022 54.269104 118.99465942 C54.35022843 129.38233075 54.41017151 139.76993772 54.44943619 150.15785408 C54.4703013 155.49827412 54.49859962 160.8384382 54.54394531 166.17871094 C54.58744096 171.33342883 54.6113327 176.48790068 54.62169647 181.64278793 C54.62908113 183.60837552 54.6435017 185.57394981 54.66510773 187.53943253 C54.69419103 190.29497513 54.69814143 193.04950412 54.69628906 195.80517578 C54.71067017 196.61581985 54.72505127 197.42646393 54.73986816 198.26167297 C54.7017207 203.51418016 53.73317652 206.49800099 50.2421875 210.65625 C43.8049113 214.94776747 34.33934633 213.06112831 26.99462891 211.62792969 C17.29478362 209.47735577 8.83776205 205.56373208 0.2421875 200.65625 C-1.08619141 199.91375 -1.08619141 199.91375 -2.44140625 199.15625 C-17.44818658 190.00133375 -24.39206469 174.62018291 -29.7578125 158.65625 C-30.02851563 157.85445312 -30.29921875 157.05265625 -30.578125 156.2265625 C-31.95822233 151.23099891 -32.0486222 146.06051264 -32.1953125 140.90625 C-32.24727783 139.80518921 -32.24727783 139.80518921 -32.30029297 138.68188477 C-32.33089833 134.62667495 -31.94518557 132.88658177 -29.35546875 129.703125 C-23.92794422 125.4263989 -18.46029914 126.17367096 -11.7578125 126.65625 C2.94178825 128.89014805 19.47996553 133.89402803 30.2421875 144.65625 C30.5721875 135.41625 30.9021875 126.17625 31.2421875 116.65625 C29.3240625 116.57375 27.4059375 116.49125 25.4296875 116.40625 C-4.20489305 114.20005386 -31.47497744 103.28976432 -51.28515625 80.78515625 C-68.11255532 59.5855099 -74.84158059 31.94283786 -75.1328125 5.28125 C-75.14683105 4.3951001 -75.16084961 3.5089502 -75.17529297 2.59594727 C-75.13960852 -2.13681753 -75.03718728 -5.64926449 -71.7578125 -9.34375 C-54.16345841 -20.66146654 -17.58835918 -7.96147436 0 0 Z M-51.7578125 10.65625 C-53.04108243 30.54693391 -45.05502977 53.20105944 -32.2578125 68.28125 C-15.65042062 85.73519559 7.93674636 92.5119237 31.2421875 94.65625 C31.42566522 88.68982645 30.82859602 83.35414828 29.5546875 77.53125 C29.37534668 76.70302734 29.19600586 75.87480469 29.01123047 75.02148438 C24.52437802 55.10554978 16.06703429 37.24157458 -1.4453125 25.84375 C-16.74369654 16.41367132 -33.63672933 10.2099179 -51.7578125 10.65625 Z " fill="#000000" transform="translate(351.7578125,278.34375)"/>
</svg>
